<svg width="18" height="18" viewBox="0 0 18 18" fill="none" xmlns="http://www.w3.org/2000/svg">
<path d="M14.4507 0H9.32903L12.588 4.34555L14.4507 0ZM3.588 0L5.45071 4.34555L8.70968 0H3.588ZM9.01935 1.65174L6.54194 4.95484H11.4968L9.01935 1.65174ZM15.4819 0.737806L13.6746 4.95484H18L15.4819 0.737806ZM2.55677 0.737806L0 4.95484H4.36413L2.55677 0.737806ZM4.78761 6.19355H0.0387097L8.66323 17.3419H8.68374L4.78761 6.19355ZM13.2511 6.19355L9.35497 17.3419H9.37548L18 6.19355H13.2511ZM11.8603 6.19355H6.17845L9.01935 14.2452L11.8603 6.19355Z" fill="#FE35B7"/>
</svg>
