<svg width="auto" height="auto" viewBox="0 0 1440 155" fill="none" xmlns="http://www.w3.org/2000/svg">
<path d="M1440 0H0V155H1440V0Z" fill="#FCF2E8"/>
<g clip-path="url(#clip0)">
<path d="M603.375 -47.3558C618.665 41.0845 584.595 166.146 326 -41.1326L603.375 -47.3558Z" fill="#FDE7CE"/>
<path d="M315.889 131.197C310.369 132.818 308.976 136.213 308.969 137.707L285.256 169.656L307.685 189.913C313.906 175.873 327.275 150.94 330.979 163.53C334.682 176.12 390.507 200.778 417.956 211.533L392.811 126.618C381.821 100.485 350.896 108.793 336.76 115.788C326.925 121.87 322.788 129.17 315.889 131.197Z" fill="#FFE7CF"/>
<path d="M1271.08 0.627686C1134.24 -4.16718 1006.24 -143.789 959.34 -213C869.765 -123.81 738.794 51.0592 931.506 37.0172C1124.22 22.9751 1272.94 130.488 1323.21 186H1477.05L1556 -71.7232C1518.04 -45.6084 1407.92 5.42253 1271.08 0.627686Z" fill="#FE510C"/>
<path d="M1502.82 142.499C1470.31 104.919 1393.29 52.6937 1345.35 144.438C1297.4 236.182 1430.35 181.372 1502.82 142.499Z" fill="url(#paint0_linear)"/>
<path d="M87.2919 137.981C66.8135 138.585 28.1953 188.965 -0.956486 208.977L-44.0666 133.104C-14.7714 111.645 51.2853 73.4363 81.1506 92.2795C111.016 111.123 97.6887 130.598 87.2919 137.981Z" fill="#FEC0E0"/>
</g>
<defs>
<linearGradient id="paint0_linear" x1="1487.27" y1="147.03" x2="1361.17" y2="121.368" gradientUnits="userSpaceOnUse">
<stop stop-color="#FCD900"/>
<stop offset="1" stop-color="#FDA600"/>
</linearGradient>
<clipPath id="clip0">
<rect width="1440" height="155" fill="white"/>
</clipPath>
</defs>
</svg>
