<svg width="20" height="20" viewBox="0 0 20 20" fill="none" xmlns="http://www.w3.org/2000/svg">
<path d="M10 20C15.5228 20 20 15.5228 20 10C20 4.47715 15.5228 0 10 0C4.47715 0 0 4.47715 0 10C0 15.5228 4.47715 20 10 20Z" fill="black"/>
<path d="M14.9229 9.79102C14.9229 11.459 14.4626 12.7441 13.542 13.6465C12.626 14.5488 11.3363 15 9.67285 15H6.43945V5.00586H9.89844C11.5026 5.00586 12.7399 5.41602 13.6104 6.23633C14.4854 7.05664 14.9229 8.24154 14.9229 9.79102ZM12.1201 9.88672C12.1201 8.9707 11.9378 8.29167 11.5732 7.84961C11.2132 7.40755 10.6641 7.18652 9.92578 7.18652H9.13965V12.7852H9.74121C10.5615 12.7852 11.1631 12.5482 11.5459 12.0742C11.9287 11.5957 12.1201 10.8665 12.1201 9.88672Z" fill="white"/>
</svg>
