<svg width="189" height="409" viewBox="0 0 189 409" fill="none" xmlns="http://www.w3.org/2000/svg">
<path d="M157.482 0.28833H31.9476C14.5552 0.28833 0.455872 14.3876 0.455872 31.78V376.797C0.455872 394.189 14.5552 408.288 31.9476 408.288H157.482C174.875 408.288 188.974 394.189 188.974 376.797V31.78C188.974 14.3876 174.875 0.28833 157.482 0.28833Z" fill="white"/>
<path d="M17.047 47.1008H14.9415L13.7605 42.52C13.7168 42.3569 13.6412 42.0209 13.5339 41.5119C13.4305 40.999 13.3708 40.655 13.3549 40.4801C13.3311 40.6948 13.2714 41.0407 13.176 41.5179C13.0805 41.9911 13.007 42.3291 12.9553 42.5319L11.7803 47.1008H9.68067L7.45587 38.3805H9.27507L10.3905 43.1403C10.5853 44.0191 10.7265 44.7806 10.814 45.4247C10.8378 45.1981 10.8915 44.8482 10.975 44.375C11.0625 43.8978 11.144 43.528 11.2196 43.2655L12.4901 38.3805H14.2377L15.5082 43.2655C15.5638 43.4842 15.6334 43.8183 15.7169 44.2676C15.8004 44.7169 15.864 45.1026 15.9078 45.4247C15.9475 45.1146 16.0112 44.7289 16.0987 44.2676C16.1861 43.8024 16.2657 43.4266 16.3372 43.1403L17.4467 38.3805H19.2659L17.047 47.1008ZM26.4896 47.1008H24.6703V43.2059C24.6703 42.2436 24.3125 41.7625 23.5967 41.7625C23.0877 41.7625 22.7199 41.9354 22.4933 42.2814C22.2666 42.6273 22.1533 43.188 22.1533 43.9634V47.1008H20.3341V37.8198H22.1533V39.7106C22.1533 39.8577 22.1393 40.2037 22.1115 40.7485L22.0698 41.2853H22.1652C22.5708 40.6331 23.215 40.3071 24.0977 40.3071C24.8811 40.3071 25.4756 40.5178 25.8812 40.9393C26.2868 41.3608 26.4896 41.9653 26.4896 42.7526V47.1008ZM29.9257 43.7546C29.9257 44.4147 30.0331 44.9138 30.2478 45.2518C30.4665 45.5898 30.8204 45.7588 31.3095 45.7588C31.7946 45.7588 32.1426 45.5917 32.3533 45.2577C32.568 44.9197 32.6754 44.4187 32.6754 43.7546C32.6754 43.0946 32.568 42.5995 32.3533 42.2694C32.1386 41.9394 31.7867 41.7744 31.2976 41.7744C30.8124 41.7744 30.4625 41.9394 30.2478 42.2694C30.0331 42.5955 29.9257 43.0906 29.9257 43.7546ZM34.5364 43.7546C34.5364 44.8402 34.2501 45.6892 33.6774 46.3015C33.1048 46.9139 32.3076 47.2201 31.2856 47.2201C30.6454 47.2201 30.0808 47.0809 29.5917 46.8026C29.1026 46.5202 28.7268 46.1166 28.4644 45.5917C28.2019 45.0669 28.0707 44.4545 28.0707 43.7546C28.0707 42.6651 28.355 41.8181 28.9236 41.2137C29.4923 40.6093 30.2915 40.3071 31.3214 40.3071C31.9616 40.3071 32.5263 40.4463 33.0154 40.7246C33.5045 41.003 33.8802 41.4026 34.1427 41.9235C34.4051 42.4444 34.5364 43.0548 34.5364 43.7546ZM43.6752 47.1008L43.3233 46.1942H43.2756C42.9694 46.5799 42.6533 46.8483 42.3272 46.9994C42.0051 47.1465 41.5836 47.2201 41.0627 47.2201C40.4225 47.2201 39.9175 47.0372 39.5477 46.6713C39.1818 46.3055 38.9989 45.7846 38.9989 45.1086C38.9989 44.4008 39.2455 43.8799 39.7385 43.5459C40.2356 43.2079 40.9832 43.021 41.9812 42.9852L43.1384 42.9494V42.6571C43.1384 41.9812 42.7924 41.6432 42.1005 41.6432C41.5677 41.6432 40.9414 41.8042 40.2217 42.1263L39.6192 40.8976C40.3867 40.496 41.2376 40.2952 42.1721 40.2952C43.0668 40.2952 43.7527 40.49 44.2299 40.8797C44.7071 41.2694 44.9457 41.8619 44.9457 42.6571V47.1008H43.6752ZM43.1384 44.0111L42.4346 44.035C41.9057 44.0509 41.512 44.1463 41.2536 44.3213C40.9951 44.4962 40.8659 44.7627 40.8659 45.1205C40.8659 45.6335 41.1601 45.89 41.7486 45.89C42.1701 45.89 42.5061 45.7687 42.7566 45.5261C43.0111 45.2836 43.1384 44.9615 43.1384 44.5599V44.0111ZM50.6603 40.3071C50.9068 40.3071 51.1116 40.325 51.2747 40.3608L51.1375 42.0666C50.9903 42.0269 50.8114 42.007 50.6006 42.007C50.0201 42.007 49.5668 42.1561 49.2407 42.4544C48.9186 42.7526 48.7576 43.1701 48.7576 43.7069V47.1008H46.9384V40.4323H48.3162L48.5846 41.5537H48.6741C48.8808 41.1799 49.1592 40.8797 49.5091 40.653C49.863 40.4224 50.2467 40.3071 50.6603 40.3071ZM55.3609 41.6014C54.9752 41.6014 54.673 41.7247 54.4543 41.9712C54.2356 42.2138 54.1103 42.5597 54.0785 43.0091H56.6314C56.6234 42.5597 56.5061 42.2138 56.2795 41.9712C56.0528 41.7247 55.7466 41.6014 55.3609 41.6014ZM55.6174 47.2201C54.5438 47.2201 53.7048 46.9238 53.1003 46.3314C52.4959 45.7389 52.1937 44.8999 52.1937 43.8143C52.1937 42.6969 52.4721 41.834 53.0288 41.2256C53.5894 40.6133 54.3629 40.3071 55.349 40.3071C56.2914 40.3071 57.0251 40.5755 57.55 41.1123C58.0748 41.6491 58.3373 42.3907 58.3373 43.3371V44.2199H54.0368C54.0567 44.7368 54.2098 45.1404 54.4961 45.4307C54.7824 45.721 55.184 45.8661 55.7009 45.8661C56.1025 45.8661 56.4823 45.8244 56.8402 45.7409C57.198 45.6574 57.5718 45.5241 57.9615 45.3412V46.7489C57.6434 46.9079 57.3034 47.0252 56.9416 47.1008C56.5797 47.1803 56.1383 47.2201 55.6174 47.2201ZM62.263 40.4323H64.2552L65.5139 44.1841C65.6209 44.5102 65.6949 44.8959 65.7349 45.3412H65.7699C65.8139 44.9317 65.8999 44.5459 66.0269 44.1841L67.2619 40.4323H69.2119L66.3909 47.9537C66.1319 48.6496 65.7619 49.1705 65.2811 49.5165C64.804 49.8624 64.2453 50.0354 63.6051 50.0354C63.2909 50.0354 62.9828 50.0016 62.6806 49.934V48.4906C62.8993 48.5423 63.1379 48.5681 63.3963 48.5681C63.7184 48.5681 63.9987 48.4687 64.2373 48.2699C64.4799 48.075 64.6688 47.7788 64.804 47.3811L64.9113 47.0531L62.263 40.4323ZM71.7349 43.7546C71.7349 44.4147 71.8429 44.9138 72.0579 45.2518C72.2759 45.5898 72.6299 45.7588 73.1189 45.7588C73.6039 45.7588 73.9519 45.5917 74.1629 45.2577C74.3779 44.9197 74.4849 44.4187 74.4849 43.7546C74.4849 43.0946 74.3779 42.5995 74.1629 42.2694C73.9479 41.9394 73.5959 41.7744 73.1069 41.7744C72.6219 41.7744 72.2719 41.9394 72.0579 42.2694C71.8429 42.5955 71.7349 43.0906 71.7349 43.7546ZM76.3459 43.7546C76.3459 44.8402 76.0599 45.6892 75.4869 46.3015C74.9149 46.9139 74.1169 47.2201 73.0949 47.2201C72.4549 47.2201 71.8909 47.0809 71.4009 46.8026C70.9119 46.5202 70.5369 46.1166 70.2739 45.5917C70.0119 45.0669 69.8799 44.4545 69.8799 43.7546C69.8799 42.6651 70.1649 41.8181 70.7329 41.2137C71.3019 40.6093 72.1009 40.3071 73.1309 40.3071C73.7709 40.3071 74.3359 40.4463 74.8249 40.7246C75.3139 41.003 75.6899 41.4026 75.9519 41.9235C76.2149 42.4444 76.3459 43.0548 76.3459 43.7546ZM82.6869 47.1008L82.4429 46.2479H82.3469C82.1519 46.558 81.8759 46.7986 81.5179 46.9696C81.1599 47.1366 80.7529 47.2201 80.2949 47.2201C79.5119 47.2201 78.9209 47.0113 78.5239 46.5938C78.1259 46.1723 77.9269 45.5679 77.9269 44.7806V40.4323H79.7469V44.3272C79.7469 44.8084 79.8319 45.1702 80.0029 45.4128C80.1739 45.6514 80.4459 45.7707 80.8199 45.7707C81.3289 45.7707 81.6969 45.6017 81.9239 45.2637C82.1499 44.9217 82.2639 44.3571 82.2639 43.5697V40.4323H84.0829V47.1008H82.6869ZM91.2119 47.1008H89.3919V37.8198H91.2119V47.1008ZM94.6889 43.7546C94.6889 44.4147 94.7969 44.9138 95.0119 45.2518C95.2299 45.5898 95.5839 45.7588 96.0729 45.7588C96.5579 45.7588 96.9059 45.5917 97.1169 45.2577C97.3319 44.9197 97.4389 44.4187 97.4389 43.7546C97.4389 43.0946 97.3319 42.5995 97.1169 42.2694C96.9019 41.9394 96.5499 41.7744 96.0609 41.7744C95.5759 41.7744 95.2259 41.9394 95.0119 42.2694C94.7969 42.5955 94.6889 43.0906 94.6889 43.7546ZM99.2999 43.7546C99.2999 44.8402 99.0139 45.6892 98.4409 46.3015C97.8689 46.9139 97.0709 47.2201 96.0489 47.2201C95.4089 47.2201 94.8449 47.0809 94.3549 46.8026C93.8659 46.5202 93.4909 46.1166 93.2279 45.5917C92.9659 45.0669 92.8339 44.4545 92.8339 43.7546C92.8339 42.6651 93.1189 41.8181 93.6869 41.2137C94.2559 40.6093 95.0549 40.3071 96.0849 40.3071C96.7249 40.3071 97.2899 40.4463 97.7789 40.7246C98.2679 41.003 98.6439 41.4026 98.9059 41.9235C99.1689 42.4444 99.2999 43.0548 99.2999 43.7546ZM102.366 43.7546C102.366 44.4147 102.474 44.9138 102.689 45.2518C102.907 45.5898 103.261 45.7588 103.75 45.7588C104.235 45.7588 104.583 45.5917 104.794 45.2577C105.009 44.9197 105.116 44.4187 105.116 43.7546C105.116 43.0946 105.009 42.5995 104.794 42.2694C104.579 41.9394 104.227 41.7744 103.738 41.7744C103.253 41.7744 102.903 41.9394 102.689 42.2694C102.474 42.5955 102.366 43.0906 102.366 43.7546ZM106.977 43.7546C106.977 44.8402 106.691 45.6892 106.118 46.3015C105.546 46.9139 104.748 47.2201 103.726 47.2201C103.086 47.2201 102.522 47.0809 102.032 46.8026C101.543 46.5202 101.168 46.1166 100.905 45.5917C100.643 45.0669 100.511 44.4545 100.511 43.7546C100.511 42.6651 100.796 41.8181 101.364 41.2137C101.933 40.6093 102.732 40.3071 103.762 40.3071C104.402 40.3071 104.967 40.4463 105.456 40.7246C105.945 41.003 106.321 41.4026 106.583 41.9235C106.846 42.4444 106.977 43.0548 106.977 43.7546ZM110.342 43.4743L111.135 42.4603L113.002 40.4323H115.054L112.405 43.3252L115.215 47.1008H113.115L111.195 44.3988L110.413 45.0251V47.1008H108.594V37.8198H110.413V41.9593L110.318 43.4743H110.342ZM116.205 38.7086C116.205 38.1161 116.535 37.8198 117.196 37.8198C117.856 37.8198 118.186 38.1161 118.186 38.7086C118.186 38.9909 118.102 39.2116 117.935 39.3706C117.772 39.5257 117.526 39.6033 117.196 39.6033C116.535 39.6033 116.205 39.305 116.205 38.7086ZM118.102 47.1008H116.283V40.4323H118.102V47.1008ZM126.286 47.1008H124.467V43.2059C124.467 42.7247 124.381 42.3649 124.21 42.1263C124.039 41.8837 123.767 41.7625 123.393 41.7625C122.884 41.7625 122.517 41.9334 122.29 42.2754C122.063 42.6134 121.95 43.1761 121.95 43.9634V47.1008H120.131V40.4323H121.52L121.765 41.2853H121.866C122.069 40.9632 122.348 40.7206 122.701 40.5576C123.059 40.3906 123.465 40.3071 123.918 40.3071C124.694 40.3071 125.282 40.5178 125.684 40.9393C126.085 41.3569 126.286 41.9613 126.286 42.7526V47.1008ZM134.076 40.4323V41.3569L133.033 41.6253C133.224 41.9235 133.319 42.2575 133.319 42.6273C133.319 43.3431 133.068 43.9018 132.567 44.3034C132.07 44.701 131.378 44.8999 130.492 44.8999L130.164 44.882L129.895 44.8521C129.708 44.9953 129.615 45.1543 129.615 45.3293C129.615 45.5917 129.949 45.723 130.617 45.723H131.75C132.482 45.723 133.039 45.88 133.42 46.1942C133.806 46.5083 133.999 46.9696 133.999 47.578C133.999 48.3573 133.673 48.9618 133.021 49.3912C132.373 49.8207 131.44 50.0354 130.223 50.0354C129.293 50.0354 128.581 49.8724 128.088 49.5463C127.599 49.2242 127.354 48.7709 127.354 48.1864C127.354 47.7847 127.48 47.4487 127.73 47.1783C127.981 46.9079 128.348 46.7151 128.834 46.5998C128.647 46.5202 128.484 46.391 128.344 46.2121C128.205 46.0292 128.136 45.8363 128.136 45.6335C128.136 45.379 128.209 45.1683 128.356 45.0012C128.504 44.8303 128.716 44.6633 128.995 44.5002C128.645 44.3491 128.366 44.1066 128.16 43.7725C127.957 43.4385 127.855 43.0448 127.855 42.5915C127.855 41.8639 128.092 41.3012 128.565 40.9035C129.038 40.5059 129.714 40.3071 130.593 40.3071C130.78 40.3071 131.001 40.325 131.255 40.3608C131.514 40.3926 131.679 40.4164 131.75 40.4323H134.076ZM128.929 48.0432C128.929 48.2937 129.048 48.4906 129.287 48.6337C129.529 48.7769 129.867 48.8484 130.301 48.8484C130.953 48.8484 131.464 48.759 131.834 48.58C132.204 48.4011 132.388 48.1565 132.388 47.8464C132.388 47.5959 132.279 47.4229 132.06 47.3275C131.842 47.232 131.504 47.1843 131.046 47.1843H130.104C129.77 47.1843 129.49 47.2618 129.263 47.4169C129.04 47.576 128.929 47.7847 128.929 48.0432ZM129.591 42.6154C129.591 42.9773 129.673 43.2636 129.836 43.4743C130.003 43.6851 130.255 43.7904 130.593 43.7904C130.935 43.7904 131.186 43.6851 131.345 43.4743C131.504 43.2636 131.583 42.9773 131.583 42.6154C131.583 41.8122 131.253 41.4105 130.593 41.4105C129.925 41.4105 129.591 41.8122 129.591 42.6154ZM142.267 41.7982H140.692V47.1008H138.873V41.7982H137.871V40.9214L138.873 40.4323V39.9432C138.873 39.1837 139.06 38.629 139.434 38.2791C139.808 37.9292 140.406 37.7542 141.229 37.7542C141.857 37.7542 142.416 37.8477 142.905 38.0346L142.44 39.3706C142.074 39.2553 141.736 39.1977 141.426 39.1977C141.167 39.1977 140.981 39.2752 140.865 39.4303C140.75 39.5814 140.692 39.7762 140.692 40.0148V40.4323H142.267V41.7982ZM144.88 43.7546C144.88 44.4147 144.987 44.9138 145.202 45.2518C145.421 45.5898 145.775 45.7588 146.264 45.7588C146.749 45.7588 147.097 45.5917 147.308 45.2577C147.522 44.9197 147.63 44.4187 147.63 43.7546C147.63 43.0946 147.522 42.5995 147.308 42.2694C147.093 41.9394 146.741 41.7744 146.252 41.7744C145.767 41.7744 145.417 41.9394 145.202 42.2694C144.987 42.5955 144.88 43.0906 144.88 43.7546ZM149.491 43.7546C149.491 44.8402 149.204 45.6892 148.632 46.3015C148.059 46.9139 147.262 47.2201 146.24 47.2201C145.6 47.2201 145.035 47.0809 144.546 46.8026C144.057 46.5202 143.681 46.1166 143.419 45.5917C143.156 45.0669 143.025 44.4545 143.025 43.7546C143.025 42.6651 143.309 41.8181 143.878 41.2137C144.447 40.6093 145.246 40.3071 146.276 40.3071C146.916 40.3071 147.481 40.4463 147.97 40.7246C148.459 41.003 148.835 41.4026 149.097 41.9235C149.359 42.4444 149.491 43.0548 149.491 43.7546ZM154.829 40.3071C155.076 40.3071 155.281 40.325 155.444 40.3608L155.307 42.0666C155.16 42.0269 154.981 42.007 154.77 42.007C154.189 42.007 153.736 42.1561 153.41 42.4544C153.088 42.7526 152.927 43.1701 152.927 43.7069V47.1008H151.108V40.4323H152.485L152.754 41.5537H152.843C153.05 41.1799 153.328 40.8797 153.678 40.653C154.032 40.4224 154.416 40.3071 154.829 40.3071ZM157.46 44.208V43.7666C157.46 43.3848 157.542 43.0528 157.705 42.7705C157.868 42.4882 158.166 42.1879 158.6 41.8698C159.017 41.5716 159.292 41.329 159.423 41.1421C159.558 40.9552 159.626 40.7465 159.626 40.5158C159.626 40.2574 159.53 40.0605 159.339 39.9253C159.148 39.7901 158.882 39.7225 158.54 39.7225C157.944 39.7225 157.264 39.9174 156.5 40.3071L155.85 39.0008C156.737 38.5038 157.677 38.2552 158.671 38.2552C159.49 38.2552 160.14 38.4521 160.622 38.8457C161.107 39.2394 161.349 39.7643 161.349 40.4204C161.349 40.8578 161.25 41.2356 161.051 41.5537C160.852 41.8718 160.475 42.2297 159.918 42.6273C159.536 42.9097 159.294 43.1244 159.19 43.2715C159.091 43.4186 159.041 43.6115 159.041 43.8501V44.208H157.46ZM157.27 46.2479C157.27 45.9138 157.359 45.6613 157.538 45.4903C157.717 45.3194 157.977 45.2339 158.319 45.2339C158.649 45.2339 158.904 45.3214 159.083 45.4963C159.266 45.6713 159.357 45.9218 159.357 46.2479C159.357 46.562 159.266 46.8105 159.083 46.9934C158.9 47.1724 158.645 47.2618 158.319 47.2618C157.985 47.2618 157.727 47.1744 157.544 46.9994C157.361 46.8205 157.27 46.5699 157.27 46.2479Z" fill="black"/>
<path d="M11.2876 314.101L9.60786 308.628H9.56496C9.62536 309.741 9.65566 310.484 9.65566 310.856V314.101H8.33386V307.125H10.3476L11.9986 312.46H12.0272L13.7784 307.125H15.7921V314.101H14.413V310.799C14.413 310.643 14.4146 310.463 14.4178 310.26C14.4242 310.056 14.4465 309.515 14.4846 308.637H14.4417L12.6427 314.101H11.2876ZM19.7614 309.701C19.4529 309.701 19.2111 309.8 19.0361 309.997C18.8612 310.191 18.761 310.468 18.7355 310.828H20.7778C20.7715 310.468 20.6776 310.191 20.4963 309.997C20.315 309.8 20.07 309.701 19.7614 309.701ZM19.9666 314.196C19.1077 314.196 18.4365 313.959 17.953 313.485C17.4694 313.011 17.2277 312.34 17.2277 311.472C17.2277 310.578 17.4504 309.888 17.8957 309.401C18.3443 308.911 18.963 308.666 19.7519 308.666C20.5058 308.666 21.0928 308.881 21.5127 309.31C21.9326 309.74 22.1425 310.333 22.1425 311.09V311.796H18.7021C18.718 312.21 18.8405 312.533 19.0696 312.765C19.2986 312.997 19.6199 313.113 20.0334 313.113C20.3547 313.113 20.6585 313.08 20.9448 313.013C21.2311 312.946 21.5302 312.84 21.8419 312.693V313.819C21.5874 313.947 21.3154 314.041 21.026 314.101C20.7365 314.165 20.3834 314.196 19.9666 314.196ZM28.2162 314.101H26.7609V310.985C26.7609 310.6 26.6956 310.312 26.5652 310.121C26.438 309.927 26.236 309.83 25.9592 309.83C25.587 309.83 25.3166 309.967 25.148 310.241C24.9794 310.514 24.8951 310.964 24.8951 311.591V314.101H23.4398V308.766H24.5516L24.7472 309.449H24.8283C24.9715 309.204 25.1782 309.013 25.4486 308.876C25.719 308.736 26.0292 308.666 26.3791 308.666C27.1776 308.666 27.7184 308.927 28.0015 309.449H28.1303C28.2735 309.2 28.4834 309.008 28.7602 308.871C29.0401 308.734 29.3551 308.666 29.705 308.666C30.3094 308.666 30.7659 308.822 31.0745 309.134C31.3862 309.442 31.5421 309.938 31.5421 310.622V314.101H30.082V310.985C30.082 310.6 30.0168 310.312 29.8863 310.121C29.7591 309.927 29.5571 309.83 29.2803 309.83C28.924 309.83 28.6568 309.958 28.4787 310.212C28.3037 310.467 28.2162 310.871 28.2162 311.424V314.101ZM36.1223 308.666C36.7521 308.666 37.2452 308.913 37.6015 309.406C37.9578 309.896 38.1359 310.568 38.1359 311.424C38.1359 312.305 37.9514 312.988 37.5824 313.471C37.2166 313.955 36.7171 314.196 36.0841 314.196C35.4574 314.196 34.9659 313.969 34.6096 313.514H34.5094L34.2661 314.101H33.1543V306.676H34.6096V308.404C34.6096 308.623 34.5905 308.975 34.5524 309.458H34.6096C34.95 308.93 35.4542 308.666 36.1223 308.666ZM35.6546 309.83C35.2952 309.83 35.0327 309.942 34.8673 310.164C34.7019 310.384 34.616 310.748 34.6096 311.257V311.415C34.6096 311.987 34.6939 312.398 34.8625 312.646C35.0343 312.894 35.3047 313.018 35.6737 313.018C35.9728 313.018 36.2097 312.881 36.3847 312.607C36.5629 312.331 36.6519 311.93 36.6519 311.405C36.6519 310.88 36.5629 310.487 36.3847 310.226C36.2066 309.962 35.9632 309.83 35.6546 309.83ZM41.6615 309.701C41.353 309.701 41.1112 309.8 40.9362 309.997C40.7613 310.191 40.6611 310.468 40.6356 310.828H42.6779C42.6715 310.468 42.5777 310.191 42.3964 309.997C42.2151 309.8 41.9701 309.701 41.6615 309.701ZM41.8667 314.196C41.0078 314.196 40.3366 313.959 39.8531 313.485C39.3695 313.011 39.1278 312.34 39.1278 311.472C39.1278 310.578 39.3504 309.888 39.7958 309.401C40.2443 308.911 40.8631 308.666 41.652 308.666C42.4059 308.666 42.9928 308.881 43.4128 309.31C43.8327 309.74 44.0426 310.333 44.0426 311.09V311.796H40.6022C40.6181 312.21 40.7406 312.533 40.9696 312.765C41.1987 312.997 41.52 313.113 41.9335 313.113C42.2548 313.113 42.5586 313.08 42.8449 313.013C43.1312 312.946 43.4303 312.84 43.742 312.693V313.819C43.4875 313.947 43.2155 314.041 42.926 314.101C42.6366 314.165 42.2835 314.196 41.8667 314.196ZM48.3174 308.666C48.5146 308.666 48.6784 308.68 48.8089 308.709L48.6991 310.074C48.5814 310.042 48.4383 310.026 48.2697 310.026C47.8052 310.026 47.4426 310.145 47.1817 310.384C46.924 310.622 46.7952 310.956 46.7952 311.386V314.101H45.3398V308.766H46.4421L46.6568 309.663H46.7284C46.8938 309.364 47.1165 309.124 47.3964 308.943C47.6796 308.758 47.9865 308.666 48.3174 308.666ZM53.6133 312.517C53.6133 313.064 53.4224 313.481 53.0407 313.767C52.6621 314.053 52.0943 314.196 51.3372 314.196C50.9491 314.196 50.6183 314.169 50.3447 314.115C50.0711 314.064 49.815 313.988 49.5764 313.886V312.684C49.8468 312.811 50.1506 312.918 50.4878 313.004C50.8282 313.089 51.1272 313.132 51.3849 313.132C51.913 313.132 52.177 312.98 52.177 312.674C52.177 312.56 52.142 312.467 52.072 312.398C52.0021 312.324 51.8812 312.243 51.7094 312.154C51.5376 312.062 51.3086 311.955 51.0223 311.834C50.6119 311.663 50.3097 311.504 50.1156 311.357C49.9248 311.211 49.7848 311.044 49.6957 310.856C49.6098 310.665 49.5669 310.432 49.5669 310.155C49.5669 309.681 49.7498 309.315 50.1156 309.057C50.4847 308.796 51.0064 308.666 51.6808 308.666C52.3233 308.666 52.9484 308.806 53.556 309.086L53.117 310.136C52.8498 310.021 52.6001 309.927 52.3679 309.854C52.1357 309.781 51.8987 309.744 51.6569 309.744C51.2274 309.744 51.0127 309.861 51.0127 310.093C51.0127 310.223 51.0811 310.336 51.2179 310.432C51.3579 310.527 51.6617 310.669 52.1293 310.856C52.546 311.025 52.8514 311.182 53.0455 311.329C53.2395 311.475 53.3827 311.644 53.4749 311.834C53.5672 312.025 53.6133 312.253 53.6133 312.517Z" fill="black"/>
<path d="M106.962 337.153H105.116V336.108H106.962V334.247H108.007V336.108H109.854V337.153H108.007V338.99H106.962V337.153ZM115.66 340.073H110.784V339.047L112.535 337.277C113.054 336.745 113.392 336.378 113.551 336.174C113.71 335.968 113.825 335.777 113.895 335.602C113.965 335.427 114 335.245 114 335.058C114 334.778 113.922 334.569 113.766 334.433C113.613 334.296 113.408 334.227 113.151 334.227C112.88 334.227 112.618 334.289 112.363 334.414C112.109 334.538 111.843 334.714 111.566 334.943L110.765 333.994C111.108 333.701 111.393 333.494 111.619 333.373C111.845 333.252 112.091 333.16 112.358 333.097C112.626 333.03 112.925 332.996 113.256 332.996C113.691 332.996 114.076 333.076 114.41 333.235C114.744 333.394 115.004 333.617 115.188 333.903C115.373 334.189 115.465 334.517 115.465 334.886C115.465 335.207 115.408 335.509 115.293 335.793C115.182 336.073 115.007 336.36 114.768 336.656C114.533 336.952 114.116 337.374 113.518 337.921L112.621 338.765V338.832H115.66V340.073ZM121.319 336.585C121.319 337.803 121.119 338.705 120.718 339.29C120.32 339.876 119.706 340.168 118.876 340.168C118.071 340.168 117.463 339.866 117.053 339.262C116.646 338.657 116.442 337.765 116.442 336.585C116.442 335.354 116.641 334.447 117.039 333.865C117.436 333.279 118.049 332.987 118.876 332.987C119.681 332.987 120.288 333.292 120.699 333.903C121.112 334.514 121.319 335.408 121.319 336.585ZM117.907 336.585C117.907 337.44 117.98 338.054 118.127 338.427C118.276 338.796 118.526 338.98 118.876 338.98C119.219 338.98 119.468 338.792 119.62 338.417C119.773 338.042 119.849 337.431 119.849 336.585C119.849 335.729 119.771 335.115 119.616 334.743C119.463 334.367 119.216 334.18 118.876 334.18C118.529 334.18 118.281 334.367 118.132 334.743C117.982 335.115 117.907 335.729 117.907 336.585Z" fill="black"/>
<path d="M81.8933 111.45H16.7437C11.3465 111.45 6.97119 115.825 6.97119 121.222V191.258C6.97119 196.655 11.3465 201.031 16.7437 201.031H81.8933C87.2905 201.031 91.6658 196.655 91.6658 191.258V121.222C91.6658 115.825 87.2905 111.45 81.8933 111.45Z" fill="#F7F6FD"/>
<g filter="url(#filter0_d)">
<path d="M172.696 240.121H16.7437C11.3465 240.121 6.97119 244.496 6.97119 249.893V280.432C6.97119 285.829 11.3465 290.205 16.7437 290.205H172.696C178.093 290.205 182.468 285.829 182.468 280.432V249.893C182.468 244.496 178.093 240.121 172.696 240.121Z" fill="white"/>
</g>
<path d="M172.696 111.45H107.546C102.149 111.45 97.7739 115.825 97.7739 121.222V191.258C97.7739 196.655 102.149 201.031 107.546 201.031H172.696C178.093 201.031 182.468 196.655 182.468 191.258V121.222C182.468 115.825 178.093 111.45 172.696 111.45Z" fill="#FDF6EB"/>
<path d="M31.8094 150.144C39.9052 150.144 46.4681 143.761 46.4681 135.887C46.4681 128.013 39.9052 121.63 31.8094 121.63C23.7136 121.63 17.1507 128.013 17.1507 135.887C17.1507 143.761 23.7136 150.144 31.8094 150.144Z" fill="white"/>
<path d="M19.1868 348.839C25.9333 348.839 31.4024 343.37 31.4024 336.624C31.4024 329.877 25.9333 324.408 19.1868 324.408C12.4403 324.408 6.97119 329.877 6.97119 336.624C6.97119 343.37 12.4403 348.839 19.1868 348.839Z" fill="black"/>
<path d="M51.6179 348.839C58.3644 348.839 63.8335 343.37 63.8335 336.624C63.8335 329.877 58.3644 324.408 51.6179 324.408C44.8714 324.408 39.4023 329.877 39.4023 336.624C39.4023 343.37 44.8714 348.839 51.6179 348.839Z" fill="black"/>
<path d="M94.6038 263.153C94.2698 263.153 93.9788 263.118 93.7308 263.048V261.817C93.9848 261.88 94.2168 261.912 94.4268 261.912C94.7518 261.912 94.9838 261.81 95.1238 261.607C95.2638 261.406 95.3338 261.091 95.3338 260.662V254.125H96.8128V260.652C96.8128 261.467 96.6268 262.087 96.2548 262.513C95.8828 262.94 95.3318 263.153 94.6038 263.153ZM99.7278 258.424C99.7278 258.952 99.8138 259.351 99.9858 259.622C100.161 259.892 100.444 260.027 100.835 260.027C101.223 260.027 101.502 259.894 101.67 259.627C101.842 259.356 101.928 258.955 101.928 258.424C101.928 257.896 101.842 257.5 101.67 257.236C101.498 256.972 101.217 256.84 100.826 256.84C100.437 256.84 100.158 256.972 99.9858 257.236C99.8138 257.497 99.7278 257.893 99.7278 258.424ZM103.417 258.424C103.417 259.293 103.188 259.972 102.729 260.462C102.271 260.951 101.634 261.196 100.816 261.196C100.304 261.196 99.8518 261.085 99.4608 260.862C99.0698 260.637 98.7688 260.314 98.5588 259.894C98.3488 259.474 98.2438 258.984 98.2438 258.424C98.2438 257.552 98.4718 256.875 98.9258 256.391C99.3808 255.908 100.021 255.666 100.845 255.666C101.357 255.666 101.809 255.777 102.2 256C102.591 256.223 102.892 256.542 103.102 256.959C103.312 257.376 103.417 257.864 103.417 258.424ZM104.671 254.387C104.671 253.913 104.935 253.676 105.463 253.676C105.991 253.676 106.255 253.913 106.255 254.387C106.255 254.613 106.188 254.79 106.055 254.917C105.924 255.041 105.727 255.103 105.463 255.103C104.935 255.103 104.671 254.864 104.671 254.387ZM106.188 261.101H104.733V255.766H106.188V261.101ZM112.758 261.101H111.303V257.985C111.303 257.6 111.234 257.312 111.098 257.121C110.961 256.927 110.743 256.83 110.444 256.83C110.037 256.83 109.743 256.967 109.561 257.241C109.38 257.511 109.289 257.961 109.289 258.591V261.101H107.834V255.766H108.946L109.141 256.449H109.222C109.385 256.191 109.607 255.997 109.89 255.866C110.177 255.733 110.501 255.666 110.864 255.666C111.484 255.666 111.955 255.835 112.276 256.172C112.598 256.506 112.758 256.989 112.758 257.622V261.101ZM118.182 258.424C118.182 258.952 118.268 259.351 118.44 259.622C118.615 259.892 118.898 260.027 119.289 260.027C119.677 260.027 119.956 259.894 120.124 259.627C120.296 259.356 120.382 258.955 120.382 258.424C120.382 257.896 120.296 257.5 120.124 257.236C119.953 256.972 119.671 256.84 119.28 256.84C118.892 256.84 118.612 256.972 118.44 257.236C118.268 257.497 118.182 257.893 118.182 258.424ZM121.871 258.424C121.871 259.293 121.642 259.972 121.184 260.462C120.726 260.951 120.088 261.196 119.27 261.196C118.758 261.196 118.306 261.085 117.915 260.862C117.524 260.637 117.223 260.314 117.013 259.894C116.803 259.474 116.698 258.984 116.698 258.424C116.698 257.552 116.926 256.875 117.381 256.391C117.836 255.908 118.475 255.666 119.299 255.666C119.811 255.666 120.263 255.777 120.654 256C121.045 256.223 121.346 256.542 121.556 256.959C121.766 257.376 121.871 257.864 121.871 258.424ZM126.966 261.101L126.771 260.419H126.694C126.538 260.667 126.317 260.859 126.031 260.996C125.745 261.13 125.419 261.196 125.053 261.196C124.426 261.196 123.954 261.029 123.636 260.695C123.318 260.358 123.158 259.875 123.158 259.245V255.766H124.614V258.882C124.614 259.267 124.682 259.557 124.819 259.751C124.956 259.941 125.174 260.037 125.473 260.037C125.88 260.037 126.174 259.902 126.356 259.631C126.537 259.358 126.628 258.906 126.628 258.276V255.766H128.083V261.101H126.966ZM132.701 255.666C132.898 255.666 133.062 255.68 133.193 255.709L133.083 257.074C132.965 257.042 132.822 257.026 132.654 257.026C132.189 257.026 131.826 257.145 131.566 257.384C131.308 257.622 131.179 257.956 131.179 258.386V261.101H129.724V255.766H130.826L131.041 256.663H131.112C131.278 256.364 131.5 256.124 131.78 255.943C132.063 255.758 132.37 255.666 132.701 255.666ZM99.2578 269.794C98.5618 269.794 98.0228 270.057 97.6408 270.582C97.2588 271.103 97.0688 271.83 97.0688 272.765C97.0688 274.709 97.7978 275.681 99.2578 275.681C99.8698 275.681 100.612 275.528 101.482 275.222V276.773C100.767 277.071 99.9668 277.22 99.0848 277.22C97.8158 277.22 96.8458 276.837 96.1738 276.069C95.5018 275.298 95.1658 274.192 95.1658 272.753C95.1658 271.846 95.3308 271.053 95.6608 270.373C95.9908 269.689 96.4638 269.166 97.0798 268.804C97.7008 268.438 98.4258 268.255 99.2578 268.255C100.105 268.255 100.955 268.46 101.81 268.87L101.214 270.373C100.888 270.218 100.56 270.083 100.23 269.967C99.8998 269.852 99.5758 269.794 99.2578 269.794ZM104.763 273.755C104.763 274.415 104.871 274.914 105.085 275.252C105.304 275.59 105.658 275.759 106.147 275.759C106.632 275.759 106.98 275.592 107.191 275.258C107.406 274.92 107.513 274.419 107.513 273.755C107.513 273.095 107.406 272.6 107.191 272.27C106.976 271.94 106.624 271.775 106.135 271.775C105.65 271.775 105.3 271.94 105.085 272.27C104.871 272.596 104.763 273.091 104.763 273.755ZM109.374 273.755C109.374 274.84 109.088 275.689 108.515 276.302C107.943 276.914 107.145 277.22 106.123 277.22C105.483 277.22 104.918 277.081 104.429 276.803C103.94 276.52 103.565 276.117 103.302 275.592C103.04 275.067 102.908 274.455 102.908 273.755C102.908 272.665 103.193 271.818 103.761 271.214C104.33 270.609 105.129 270.307 106.159 270.307C106.799 270.307 107.364 270.446 107.853 270.725C108.342 271.003 108.718 271.403 108.98 271.924C109.243 272.445 109.374 273.055 109.374 273.755ZM116.962 277.101H115.142V273.206C115.142 272.725 115.061 272.365 114.898 272.126C114.739 271.884 114.486 271.763 114.14 271.763C113.675 271.763 113.337 271.934 113.126 272.276C112.916 272.618 112.81 273.18 112.81 273.964V277.101H110.991V270.433H112.381L112.625 271.285H112.727C112.906 270.979 113.164 270.741 113.502 270.57C113.84 270.395 114.228 270.307 114.665 270.307C115.663 270.307 116.339 270.633 116.693 271.285H116.854C117.033 270.975 117.296 270.735 117.642 270.564C117.991 270.393 118.385 270.307 118.823 270.307C119.578 270.307 120.149 270.502 120.534 270.892C120.924 271.278 121.119 271.898 121.119 272.753V277.101H119.294V273.206C119.294 272.725 119.212 272.365 119.049 272.126C118.89 271.884 118.638 271.763 118.292 271.763C117.846 271.763 117.512 271.922 117.29 272.24C117.071 272.558 116.962 273.063 116.962 273.755V277.101ZM129.076 277.101H127.257V273.206C127.257 272.725 127.176 272.365 127.013 272.126C126.853 271.884 126.601 271.763 126.255 271.763C125.79 271.763 125.452 271.934 125.241 272.276C125.03 272.618 124.925 273.18 124.925 273.964V277.101H123.106V270.433H124.495L124.74 271.285H124.841C125.02 270.979 125.279 270.741 125.617 270.57C125.955 270.395 126.342 270.307 126.78 270.307C127.778 270.307 128.454 270.633 128.808 271.285H128.969C129.148 270.975 129.41 270.735 129.756 270.564C130.106 270.393 130.5 270.307 130.937 270.307C131.693 270.307 132.263 270.502 132.649 270.892C133.039 271.278 133.234 271.898 133.234 272.753V277.101H131.408V273.206C131.408 272.725 131.327 272.365 131.164 272.126C131.005 271.884 130.752 271.763 130.406 271.763C129.961 271.763 129.627 271.922 129.404 272.24C129.186 272.558 129.076 273.063 129.076 273.755V277.101ZM139.944 277.101L139.7 276.248H139.604C139.41 276.558 139.133 276.799 138.775 276.97C138.417 277.137 138.01 277.22 137.553 277.22C136.769 277.22 136.179 277.012 135.781 276.594C135.383 276.173 135.185 275.568 135.185 274.781V270.433H137.004V274.327C137.004 274.809 137.089 275.17 137.26 275.413C137.431 275.652 137.704 275.771 138.077 275.771C138.586 275.771 138.954 275.602 139.181 275.264C139.408 274.922 139.521 274.357 139.521 273.57V270.433H141.34V277.101H139.944ZM149.518 277.101H147.699V273.206C147.699 272.725 147.613 272.365 147.442 272.126C147.271 271.884 146.999 271.763 146.625 271.763C146.116 271.763 145.748 271.934 145.522 272.276C145.295 272.614 145.182 273.176 145.182 273.964V277.101H143.363V270.433H144.752L144.997 271.285H145.098C145.301 270.963 145.579 270.721 145.933 270.558C146.291 270.391 146.697 270.307 147.15 270.307C147.926 270.307 148.514 270.518 148.916 270.94C149.317 271.357 149.518 271.961 149.518 272.753V277.101ZM151.427 268.709C151.427 268.116 151.757 267.82 152.417 267.82C153.077 267.82 153.408 268.116 153.408 268.709C153.408 268.991 153.324 269.212 153.157 269.371C152.994 269.526 152.747 269.603 152.417 269.603C151.757 269.603 151.427 269.305 151.427 268.709ZM153.324 277.101H151.505V270.433H153.324V277.101ZM158.162 275.771C158.48 275.771 158.862 275.701 159.307 275.562V276.916C158.854 277.119 158.297 277.22 157.637 277.22C156.909 277.22 156.378 277.037 156.044 276.672C155.714 276.302 155.549 275.749 155.549 275.013V271.798H154.679V271.029L155.681 270.421L156.205 269.013H157.369V270.433H159.235V271.798H157.369V275.013C157.369 275.272 157.44 275.463 157.583 275.586C157.73 275.709 157.923 275.771 158.162 275.771ZM159.821 270.433H161.813L163.071 274.184C163.179 274.51 163.252 274.896 163.292 275.341H163.328C163.371 274.932 163.457 274.546 163.584 274.184L164.819 270.433H166.769L163.948 277.954C163.69 278.65 163.32 279.171 162.839 279.517C162.361 279.863 161.803 280.036 161.163 280.036C160.848 280.036 160.54 280.002 160.238 279.934V278.491C160.457 278.542 160.695 278.568 160.954 278.568C161.276 278.568 161.556 278.469 161.795 278.27C162.037 278.075 162.226 277.779 162.361 277.381L162.469 277.053L159.821 270.433Z" fill="black"/>
<path d="M84.0489 348.839C90.7953 348.839 96.2644 343.37 96.2644 336.624C96.2644 329.877 90.7953 324.408 84.0489 324.408C77.3024 324.408 71.8333 329.877 71.8333 336.624C71.8333 343.37 77.3024 348.839 84.0489 348.839Z" fill="black"/>
<path d="M122.205 150.144C130.301 150.144 136.864 143.761 136.864 135.887C136.864 128.013 130.301 121.63 122.205 121.63C114.109 121.63 107.546 128.013 107.546 135.887C107.546 143.761 114.109 150.144 122.205 150.144Z" fill="white"/>
<path d="M24.9106 174.126C24.9106 175.41 24.5442 176.393 23.8113 177.076C23.0821 177.759 22.0273 178.101 20.647 178.101H18.4378V170.299H20.8871C22.1607 170.299 23.1496 170.636 23.854 171.308C24.5584 171.98 24.9106 172.92 24.9106 174.126ZM23.1923 174.168C23.1923 172.493 22.4524 171.655 20.9725 171.655H20.092V176.735H20.8017C22.3955 176.735 23.1923 175.879 23.1923 174.168ZM27.8099 175.107C27.8099 175.698 27.906 176.144 28.0981 176.447C28.2938 176.749 28.6104 176.9 29.0479 176.9C29.482 176.9 29.7932 176.751 29.9818 176.452C30.1739 176.15 30.2699 175.701 30.2699 175.107C30.2699 174.517 30.1739 174.074 29.9818 173.779C29.7897 173.483 29.4748 173.336 29.0373 173.336C28.6033 173.336 28.2902 173.483 28.0981 173.779C27.906 174.07 27.8099 174.513 27.8099 175.107ZM31.9348 175.107C31.9348 176.079 31.6787 176.838 31.1664 177.386C30.6541 177.934 29.9409 178.208 29.0266 178.208C28.4538 178.208 27.9487 178.083 27.5111 177.834C27.0735 177.582 26.7374 177.221 26.5026 176.751C26.2678 176.281 26.1504 175.733 26.1504 175.107C26.1504 174.133 26.4047 173.375 26.9135 172.834C27.4222 172.293 28.1372 172.023 29.0586 172.023C29.6314 172.023 30.1365 172.148 30.5741 172.397C31.0117 172.646 31.3479 173.003 31.5826 173.469C31.8174 173.935 31.9348 174.481 31.9348 175.107ZM38.5855 172.135V172.962L37.6517 173.202C37.8225 173.469 37.9078 173.768 37.9078 174.099C37.9078 174.739 37.6837 175.239 37.2355 175.598C36.7908 175.954 36.1718 176.132 35.3785 176.132L35.085 176.116L34.8449 176.089C34.6777 176.217 34.594 176.36 34.594 176.516C34.594 176.751 34.8929 176.868 35.4905 176.868H36.5044C37.159 176.868 37.657 177.009 37.9986 177.29C38.3436 177.571 38.5162 177.984 38.5162 178.528C38.5162 179.225 38.2245 179.766 37.641 180.15C37.0612 180.534 36.2269 180.726 35.1383 180.726C34.3059 180.726 33.6691 180.581 33.228 180.289C32.7904 180.001 32.5716 179.595 32.5716 179.072C32.5716 178.713 32.6837 178.412 32.9078 178.17C33.1319 177.928 33.461 177.756 33.895 177.653C33.7278 177.582 33.5819 177.466 33.4574 177.306C33.3329 177.142 33.2707 176.97 33.2707 176.788C33.2707 176.561 33.3365 176.372 33.4681 176.223C33.5997 176.07 33.7901 175.92 34.0391 175.774C33.726 175.639 33.477 175.422 33.292 175.123C33.1106 174.825 33.0199 174.472 33.0199 174.067C33.0199 173.416 33.2315 172.912 33.6549 172.557C34.0782 172.201 34.683 172.023 35.4692 172.023C35.6364 172.023 35.8338 172.039 36.0615 172.071C36.2927 172.1 36.4404 172.121 36.5044 172.135H38.5855ZM33.9804 178.944C33.9804 179.168 34.0871 179.344 34.3006 179.472C34.5176 179.6 34.8199 179.665 35.2077 179.665C35.7911 179.665 36.2483 179.584 36.5791 179.424C36.91 179.264 37.0754 179.046 37.0754 178.768C37.0754 178.544 36.9776 178.389 36.7819 178.304C36.5862 178.218 36.2839 178.176 35.8747 178.176H35.0316C34.7328 178.176 34.482 178.245 34.2792 178.384C34.08 178.526 33.9804 178.713 33.9804 178.944ZM34.5727 174.088C34.5727 174.412 34.6456 174.668 34.7915 174.857C34.9409 175.045 35.1668 175.139 35.4692 175.139C35.7751 175.139 35.9993 175.045 36.1416 174.857C36.2839 174.668 36.355 174.412 36.355 174.088C36.355 173.37 36.0597 173.01 35.4692 173.01C34.8715 173.01 34.5727 173.37 34.5727 174.088ZM23.2137 192.101L22.648 190.244H19.8038L19.2382 192.101H17.4559L20.2094 184.267H22.2318L24.996 192.101H23.2137ZM22.2532 188.857C21.7302 187.174 21.4349 186.222 21.3673 186.002C21.3033 185.781 21.2571 185.607 21.2286 185.479C21.1112 185.934 20.775 187.06 20.2201 188.857H22.2532ZM27.858 192.208C27.1571 192.208 26.6057 191.936 26.2037 191.391C25.8053 190.847 25.6061 190.093 25.6061 189.129C25.6061 188.15 25.8089 187.389 26.2144 186.845C26.6235 186.297 27.1856 186.023 27.9007 186.023C28.6513 186.023 29.224 186.315 29.6189 186.898H29.6723C29.5905 186.454 29.5495 186.057 29.5495 185.708V183.798H31.1824V192.101H29.9338L29.6189 191.327H29.5495C29.1796 191.914 28.6157 192.208 27.858 192.208ZM28.4289 190.911C28.8452 190.911 29.1493 190.79 29.3414 190.548C29.5371 190.306 29.6438 189.895 29.6616 189.315V189.139C29.6616 188.499 29.562 188.04 29.3628 187.763C29.1671 187.485 28.8469 187.346 28.4023 187.346C28.0394 187.346 27.7566 187.501 27.5538 187.811C27.3546 188.117 27.255 188.563 27.255 189.15C27.255 189.737 27.3564 190.178 27.5591 190.473C27.7619 190.765 28.0518 190.911 28.4289 190.911ZM34.2952 189.107C34.2952 189.698 34.3913 190.144 34.5834 190.447C34.779 190.749 35.0957 190.9 35.5332 190.9C35.9672 190.9 36.2785 190.751 36.4671 190.452C36.6592 190.15 36.7552 189.701 36.7552 189.107C36.7552 188.517 36.6592 188.074 36.4671 187.779C36.275 187.483 35.9601 187.336 35.5226 187.336C35.0885 187.336 34.7755 187.483 34.5834 187.779C34.3913 188.07 34.2952 188.513 34.2952 189.107ZM38.4201 189.107C38.4201 190.079 38.164 190.838 37.6517 191.386C37.1394 191.934 36.4262 192.208 35.5119 192.208C34.9391 192.208 34.434 192.083 33.9964 191.834C33.5588 191.582 33.2226 191.221 32.9878 190.751C32.7531 190.281 32.6357 189.733 32.6357 189.107C32.6357 188.133 32.89 187.375 33.3987 186.834C33.9075 186.293 34.6225 186.023 35.5439 186.023C36.1166 186.023 36.6218 186.148 37.0594 186.397C37.497 186.646 37.8331 187.003 38.0679 187.469C38.3027 187.935 38.4201 188.481 38.4201 189.107ZM43.1551 192.208C42.4543 192.208 41.9047 191.953 41.5062 191.445H41.4208C41.4778 191.943 41.5062 192.231 41.5062 192.309V194.726H39.8787V186.135H41.2021L41.4315 186.909H41.5062C41.8869 186.318 42.4507 186.023 43.1978 186.023C43.9022 186.023 44.4536 186.295 44.852 186.839C45.2505 187.384 45.4497 188.14 45.4497 189.107C45.4497 189.744 45.3554 190.297 45.1669 190.767C44.9819 191.237 44.7169 191.594 44.3718 191.84C44.0267 192.085 43.6211 192.208 43.1551 192.208ZM42.6749 187.325C42.2729 187.325 41.9794 187.45 41.7944 187.699C41.6094 187.944 41.5133 188.351 41.5062 188.921V189.097C41.5062 189.737 41.6005 190.196 41.789 190.473C41.9812 190.751 42.2835 190.89 42.6962 190.89C43.4255 190.89 43.7901 190.288 43.7901 189.086C43.7901 188.499 43.6994 188.06 43.518 187.768C43.3401 187.473 43.0591 187.325 42.6749 187.325ZM49.4216 190.911C49.7062 190.911 50.0477 190.849 50.4462 190.724V191.936C50.0406 192.117 49.5426 192.208 48.952 192.208C48.301 192.208 47.8261 192.044 47.5273 191.717C47.232 191.386 47.0844 190.891 47.0844 190.233V187.357H46.3053V186.669L47.2018 186.124L47.6713 184.865H48.7119V186.135H50.3821V187.357H48.7119V190.233C48.7119 190.465 48.7759 190.635 48.904 190.746C49.0356 190.856 49.2082 190.911 49.4216 190.911ZM51.702 184.593C51.702 184.063 51.9972 183.798 52.5878 183.798C53.1783 183.798 53.4736 184.063 53.4736 184.593C53.4736 184.846 53.3989 185.043 53.2495 185.185C53.1036 185.324 52.883 185.393 52.5878 185.393C51.9972 185.393 51.702 185.127 51.702 184.593ZM53.3989 192.101H51.7713V186.135H53.3989V192.101ZM56.5223 189.107C56.5223 189.698 56.6184 190.144 56.8105 190.447C57.0062 190.749 57.3228 190.9 57.7603 190.9C58.1944 190.9 58.5056 190.751 58.6942 190.452C58.8863 190.15 58.9823 189.701 58.9823 189.107C58.9823 188.517 58.8863 188.074 58.6942 187.779C58.5021 187.483 58.1872 187.336 57.7497 187.336C57.3157 187.336 57.0026 187.483 56.8105 187.779C56.6184 188.07 56.5223 188.513 56.5223 189.107ZM60.6472 189.107C60.6472 190.079 60.3911 190.838 59.8788 191.386C59.3665 191.934 58.6533 192.208 57.739 192.208C57.1662 192.208 56.6611 192.083 56.2235 191.834C55.7859 191.582 55.4498 191.221 55.215 190.751C54.9802 190.281 54.8628 189.733 54.8628 189.107C54.8628 188.133 55.1171 187.375 55.6259 186.834C56.1346 186.293 56.8496 186.023 57.771 186.023C58.3438 186.023 58.8489 186.148 59.2865 186.397C59.7241 186.646 60.0603 187.003 60.295 187.469C60.5298 187.935 60.6472 188.481 60.6472 189.107ZM67.6129 192.101H65.9849V188.616C65.9849 188.186 65.9089 187.864 65.7559 187.651C65.6029 187.434 65.3591 187.325 65.0247 187.325C64.5694 187.325 64.2403 187.478 64.0375 187.784C63.8347 188.086 63.7333 188.59 63.7333 189.294V192.101H62.1058V186.135H63.3491L63.5679 186.898H63.6586C63.8401 186.61 64.0891 186.393 64.4057 186.247C64.7259 186.098 65.0887 186.023 65.4939 186.023C66.1879 186.023 66.7149 186.212 67.0739 186.589C67.4329 186.962 67.6129 187.503 67.6129 188.211V192.101Z" fill="#6D639C"/>
<path d="M16.2894 225.101H13.9394L10.1458 218.504H10.0922C10.1677 219.669 10.2055 220.5 10.2055 220.997V225.101H8.55334V216.381H10.8855L14.673 222.912H14.7148C14.6551 221.779 14.6253 220.977 14.6253 220.508V216.381H16.2894V225.101ZM21.2227 219.602C20.837 219.602 20.5348 219.725 20.3161 219.971C20.0974 220.214 19.9721 220.56 19.9403 221.009H22.4932C22.4852 220.56 22.3679 220.214 22.1412 219.971C21.9146 219.725 21.6084 219.602 21.2227 219.602ZM21.4792 225.22C20.4055 225.22 19.5665 224.924 18.9621 224.332C18.3577 223.739 18.0555 222.9 18.0555 221.814C18.0555 220.697 18.3338 219.834 18.8905 219.226C19.4512 218.613 20.2246 218.307 21.2108 218.307C22.1532 218.307 22.8868 218.576 23.4117 219.113C23.9366 219.649 24.199 220.391 24.199 221.337V222.22H19.8985C19.9184 222.737 20.0715 223.141 20.3578 223.431C20.6441 223.721 21.0457 223.866 21.5627 223.866C21.9643 223.866 22.344 223.825 22.7019 223.741C23.0598 223.658 23.4336 223.524 23.8233 223.341V224.749C23.5052 224.908 23.1652 225.025 22.8033 225.101C22.4415 225.181 22.0001 225.22 21.4792 225.22ZM31.2736 225.101L30.7606 222.769L30.0687 219.822H30.027L28.8102 225.101H26.8538L24.9571 218.433H26.7703L27.5397 221.385C27.663 221.914 27.7883 222.644 27.9155 223.574H27.9513C27.9672 223.272 28.0368 222.793 28.1601 222.137L28.2555 221.63L29.0786 218.433H31.0827L31.8641 221.63C31.88 221.717 31.9039 221.846 31.9357 222.017C31.9715 222.188 32.0053 222.371 32.0371 222.566C32.0689 222.757 32.0967 222.946 32.1206 223.133C32.1484 223.316 32.1643 223.463 32.1683 223.574H32.2041C32.2399 223.288 32.3035 222.896 32.395 222.399C32.4864 221.898 32.552 221.56 32.5918 221.385L33.391 218.433H35.1745L33.2539 225.101H31.2736ZM41.0203 223.121C41.0203 223.805 40.7817 224.326 40.3046 224.683C39.8314 225.041 39.1216 225.22 38.1752 225.22C37.6901 225.22 37.2765 225.186 36.9346 225.119C36.5926 225.055 36.2725 224.96 35.9742 224.833V223.33C36.3122 223.489 36.692 223.622 37.1135 223.729C37.539 223.836 37.9128 223.89 38.2348 223.89C38.8949 223.89 39.225 223.699 39.225 223.318C39.225 223.174 39.1812 223.059 39.0937 222.972C39.0063 222.88 38.8552 222.779 38.6404 222.667C38.4257 222.552 38.1394 222.419 37.7815 222.268C37.2686 222.053 36.8908 221.854 36.6482 221.671C36.4097 221.488 36.2347 221.28 36.1234 221.045C36.016 220.806 35.9623 220.514 35.9623 220.168C35.9623 219.576 36.191 219.118 36.6482 218.796C37.1095 218.47 37.7616 218.307 38.6046 218.307C39.4079 218.307 40.1893 218.482 40.9487 218.832L40.4 220.144C40.066 220.001 39.7538 219.884 39.4636 219.792C39.1733 219.701 38.877 219.655 38.5748 219.655C38.038 219.655 37.7696 219.8 37.7696 220.091C37.7696 220.254 37.8551 220.395 38.0261 220.514C38.201 220.633 38.5808 220.81 39.1653 221.045C39.6862 221.256 40.068 221.453 40.3105 221.636C40.5531 221.818 40.732 222.029 40.8474 222.268C40.9627 222.506 41.0203 222.791 41.0203 223.121Z" fill="black"/>
<path d="M111.752 171.564C111.129 171.564 110.647 171.799 110.306 172.269C109.964 172.735 109.793 173.386 109.793 174.222C109.793 175.961 110.446 176.831 111.752 176.831C112.3 176.831 112.963 176.694 113.742 176.42V177.808C113.102 178.074 112.387 178.208 111.597 178.208C110.462 178.208 109.594 177.864 108.993 177.178C108.392 176.488 108.091 175.499 108.091 174.211C108.091 173.4 108.239 172.69 108.534 172.082C108.829 171.47 109.253 171.002 109.804 170.678C110.359 170.351 111.008 170.187 111.752 170.187C112.509 170.187 113.271 170.371 114.036 170.737L113.502 172.082C113.21 171.943 112.917 171.822 112.621 171.719C112.326 171.616 112.036 171.564 111.752 171.564ZM119.181 178.101L118.867 177.29H118.824C118.55 177.635 118.267 177.875 117.975 178.01C117.687 178.142 117.31 178.208 116.844 178.208C116.271 178.208 115.82 178.044 115.489 177.717C115.161 177.39 114.998 176.923 114.998 176.319C114.998 175.685 115.218 175.219 115.66 174.921C116.104 174.618 116.773 174.451 117.666 174.419L118.701 174.387V174.126C118.701 173.521 118.392 173.218 117.773 173.218C117.296 173.218 116.736 173.362 116.092 173.651L115.553 172.551C116.239 172.192 117.001 172.012 117.837 172.012C118.637 172.012 119.251 172.187 119.678 172.535C120.105 172.884 120.318 173.414 120.318 174.126V178.101H119.181ZM118.701 175.337L118.072 175.358C117.598 175.372 117.246 175.458 117.015 175.614C116.784 175.771 116.668 176.009 116.668 176.329C116.668 176.788 116.931 177.018 117.458 177.018C117.835 177.018 118.136 176.909 118.36 176.692C118.587 176.475 118.701 176.187 118.701 175.828V175.337ZM124.626 176.911C124.911 176.911 125.252 176.849 125.651 176.724V177.936C125.245 178.117 124.747 178.208 124.157 178.208C123.506 178.208 123.031 178.044 122.732 177.717C122.437 177.386 122.289 176.891 122.289 176.233V173.357H121.51V172.669L122.406 172.124L122.876 170.865H123.916V172.135H125.587V173.357H123.916V176.233C123.916 176.465 123.98 176.635 124.109 176.746C124.24 176.856 124.413 176.911 124.626 176.911ZM113.214 192.101L112.648 190.244H109.804L109.238 192.101H107.456L110.209 184.267H112.232L114.996 192.101H113.214ZM112.253 188.857C111.73 187.174 111.435 186.222 111.367 186.002C111.303 185.781 111.257 185.607 111.229 185.479C111.111 185.934 110.775 187.06 110.22 188.857H112.253ZM117.858 192.208C117.157 192.208 116.606 191.936 116.204 191.391C115.805 190.847 115.606 190.093 115.606 189.129C115.606 188.15 115.809 187.389 116.215 186.845C116.624 186.297 117.186 186.023 117.901 186.023C118.651 186.023 119.224 186.315 119.619 186.898H119.672C119.591 186.454 119.55 186.057 119.55 185.708V183.798H121.183V192.101H119.934L119.619 191.327H119.55C119.18 191.914 118.616 192.208 117.858 192.208ZM118.429 190.911C118.845 190.911 119.149 190.79 119.342 190.548C119.537 190.306 119.644 189.895 119.662 189.315V189.139C119.662 188.499 119.562 188.04 119.363 187.763C119.167 187.485 118.847 187.346 118.402 187.346C118.039 187.346 117.757 187.501 117.554 187.811C117.355 188.117 117.255 188.563 117.255 189.15C117.255 189.737 117.356 190.178 117.559 190.473C117.762 190.765 118.052 190.911 118.429 190.911ZM124.295 189.107C124.295 189.698 124.391 190.144 124.583 190.447C124.779 190.749 125.096 190.9 125.533 190.9C125.967 190.9 126.279 190.751 126.467 190.452C126.659 190.15 126.755 189.701 126.755 189.107C126.755 188.517 126.659 188.074 126.467 187.779C126.275 187.483 125.96 187.336 125.523 187.336C125.089 187.336 124.776 187.483 124.583 187.779C124.391 188.07 124.295 188.513 124.295 189.107ZM128.42 189.107C128.42 190.079 128.164 190.838 127.652 191.386C127.14 191.934 126.426 192.208 125.512 192.208C124.939 192.208 124.434 192.083 123.996 191.834C123.559 191.582 123.223 191.221 122.988 190.751C122.753 190.281 122.636 189.733 122.636 189.107C122.636 188.133 122.89 187.375 123.399 186.834C123.908 186.293 124.623 186.023 125.544 186.023C126.117 186.023 126.622 186.148 127.059 186.397C127.497 186.646 127.833 187.003 128.068 187.469C128.303 187.935 128.42 188.481 128.42 189.107ZM133.155 192.208C132.454 192.208 131.905 191.953 131.506 191.445H131.421C131.478 191.943 131.506 192.231 131.506 192.309V194.726H129.879V186.135H131.202L131.432 186.909H131.506C131.887 186.318 132.451 186.023 133.198 186.023C133.902 186.023 134.454 186.295 134.852 186.839C135.251 187.384 135.45 188.14 135.45 189.107C135.45 189.744 135.356 190.297 135.167 190.767C134.982 191.237 134.717 191.594 134.372 191.84C134.027 192.085 133.621 192.208 133.155 192.208ZM132.675 187.325C132.273 187.325 131.979 187.45 131.794 187.699C131.609 187.944 131.513 188.351 131.506 188.921V189.097C131.506 189.737 131.601 190.196 131.789 190.473C131.981 190.751 132.284 190.89 132.696 190.89C133.426 190.89 133.79 190.288 133.79 189.086C133.79 188.499 133.7 188.06 133.518 187.768C133.34 187.473 133.059 187.325 132.675 187.325ZM139.422 190.911C139.706 190.911 140.048 190.849 140.446 190.724V191.936C140.041 192.117 139.543 192.208 138.952 192.208C138.301 192.208 137.826 192.044 137.527 191.717C137.232 191.386 137.084 190.891 137.084 190.233V187.357H136.305V186.669L137.202 186.124L137.671 184.865H138.712V186.135H140.382V187.357H138.712V190.233C138.712 190.465 138.776 190.635 138.904 190.746C139.036 190.856 139.208 190.911 139.422 190.911ZM141.702 184.593C141.702 184.063 141.997 183.798 142.588 183.798C143.178 183.798 143.474 184.063 143.474 184.593C143.474 184.846 143.399 185.043 143.25 185.185C143.104 185.324 142.883 185.393 142.588 185.393C141.997 185.393 141.702 185.127 141.702 184.593ZM143.399 192.101H141.771V186.135H143.399V192.101ZM146.522 189.107C146.522 189.698 146.618 190.144 146.811 190.447C147.006 190.749 147.323 190.9 147.76 190.9C148.194 190.9 148.506 190.751 148.694 190.452C148.886 190.15 148.982 189.701 148.982 189.107C148.982 188.517 148.886 188.074 148.694 187.779C148.502 187.483 148.187 187.336 147.75 187.336C147.316 187.336 147.003 187.483 146.811 187.779C146.618 188.07 146.522 188.513 146.522 189.107ZM150.647 189.107C150.647 190.079 150.391 190.838 149.879 191.386C149.367 191.934 148.653 192.208 147.739 192.208C147.166 192.208 146.661 192.083 146.224 191.834C145.786 191.582 145.45 191.221 145.215 190.751C144.98 190.281 144.863 189.733 144.863 189.107C144.863 188.133 145.117 187.375 145.626 186.834C146.135 186.293 146.85 186.023 147.771 186.023C148.344 186.023 148.849 186.148 149.287 186.397C149.724 186.646 150.06 187.003 150.295 187.469C150.53 187.935 150.647 188.481 150.647 189.107ZM157.613 192.101H155.985V188.616C155.985 188.186 155.909 187.864 155.756 187.651C155.603 187.434 155.359 187.325 155.025 187.325C154.569 187.325 154.24 187.478 154.038 187.784C153.835 188.086 153.733 188.59 153.733 189.294V192.101H152.106V186.135H153.349L153.568 186.898H153.659C153.84 186.61 154.089 186.393 154.406 186.247C154.726 186.098 155.089 186.023 155.494 186.023C156.188 186.023 156.715 186.212 157.074 186.589C157.433 186.962 157.613 187.503 157.613 188.211V192.101Z" fill="#D7B685"/>
<path d="M73.6139 188.408H81.2149" stroke="#6D639C" stroke-width="0.814371" stroke-linecap="round" stroke-linejoin="round"/>
<path d="M77.4139 184.608L81.2149 188.408L77.4139 192.208" stroke="#6D639C" stroke-width="0.814371" stroke-linecap="round" stroke-linejoin="round"/>
<path d="M164.01 188.408H171.61" stroke="#D7B685" stroke-width="0.814371" stroke-linecap="round" stroke-linejoin="round"/>
<path d="M167.81 184.608L171.61 188.408L167.81 192.208" stroke="#D7B685" stroke-width="0.814371" stroke-linecap="round" stroke-linejoin="round"/>
<path d="M175.139 60.3481H14.3005C10.3651 60.3481 7.17474 63.5384 7.17474 67.4739V77.2464C7.17474 81.1818 10.3651 84.3721 14.3005 84.3721H175.139C179.074 84.3721 182.265 81.1818 182.265 77.2464V67.4739C182.265 63.5384 179.074 60.3481 175.139 60.3481Z" stroke="#E9E9E9" stroke-width="0.407186"/>
<path d="M174.325 68.6958H166.995L169.927 72.3338V74.8488L171.393 75.6178V72.3338L174.325 68.6958Z" fill="#878789"/>
<path d="M177.174 328.887H141.342C138.644 328.887 136.456 331.074 136.456 333.773V339.474C136.456 342.172 138.644 344.36 141.342 344.36H177.174C179.873 344.36 182.061 342.172 182.061 339.474V333.773C182.061 331.074 179.873 328.887 177.174 328.887Z" fill="#5247A7"/>
<path d="M145.945 340.783C145.666 340.783 145.424 340.754 145.217 340.695V339.669C145.429 339.722 145.623 339.749 145.798 339.749C146.068 339.749 146.262 339.664 146.378 339.494C146.495 339.327 146.553 339.065 146.553 338.707V333.259H147.786V338.699C147.786 339.378 147.631 339.895 147.321 340.25C147.01 340.605 146.552 340.783 145.945 340.783ZM150.234 336.842C150.234 337.282 150.305 337.615 150.449 337.84C150.594 338.065 150.83 338.178 151.156 338.178C151.48 338.178 151.712 338.067 151.852 337.844C151.995 337.619 152.067 337.285 152.067 336.842C152.067 336.402 151.995 336.072 151.852 335.852C151.709 335.632 151.474 335.522 151.148 335.522C150.825 335.522 150.592 335.632 150.449 335.852C150.305 336.069 150.234 336.399 150.234 336.842ZM153.308 336.842C153.308 337.566 153.117 338.132 152.735 338.54C152.353 338.948 151.822 339.152 151.14 339.152C150.714 339.152 150.337 339.06 150.011 338.874C149.685 338.686 149.435 338.417 149.26 338.067C149.085 337.717 148.997 337.309 148.997 336.842C148.997 336.116 149.187 335.551 149.566 335.148C149.945 334.745 150.478 334.544 151.164 334.544C151.591 334.544 151.968 334.636 152.294 334.822C152.62 335.008 152.87 335.274 153.045 335.621C153.22 335.969 153.308 336.375 153.308 336.842ZM154.372 333.478C154.372 333.083 154.592 332.885 155.032 332.885C155.472 332.885 155.692 333.083 155.692 333.478C155.692 333.666 155.636 333.813 155.525 333.919C155.416 334.023 155.252 334.074 155.032 334.074C154.592 334.074 154.372 333.876 154.372 333.478ZM155.636 339.073H154.424V334.627H155.636V339.073ZM161.13 339.073H159.917V336.476C159.917 336.155 159.86 335.916 159.746 335.756C159.632 335.595 159.451 335.514 159.202 335.514C158.862 335.514 158.617 335.628 158.466 335.856C158.315 336.081 158.239 336.456 158.239 336.981V339.073H157.027V334.627H157.953L158.116 335.196H158.184C158.319 334.981 158.504 334.819 158.74 334.711C158.979 334.599 159.249 334.544 159.552 334.544C160.069 334.544 160.461 334.684 160.729 334.965C160.996 335.244 161.13 335.646 161.13 336.174V339.073ZM162.441 333.478C162.441 333.083 162.661 332.885 163.101 332.885C163.541 332.885 163.761 333.083 163.761 333.478C163.761 333.666 163.705 333.813 163.594 333.919C163.485 334.023 163.321 334.074 163.101 334.074C162.661 334.074 162.441 333.876 162.441 333.478ZM163.705 339.073H162.493V334.627H163.705V339.073ZM169.199 339.073H167.987V336.476C167.987 336.155 167.93 335.916 167.816 335.756C167.702 335.595 167.52 335.514 167.271 335.514C166.932 335.514 166.686 335.628 166.535 335.856C166.384 336.081 166.309 336.456 166.309 336.981V339.073H165.096V334.627H166.022L166.185 335.196H166.253C166.388 334.981 166.574 334.819 166.81 334.711C167.048 334.599 167.319 334.544 167.621 334.544C168.138 334.544 168.53 334.684 168.798 334.965C169.066 335.244 169.199 335.646 169.199 336.174V339.073ZM174.431 334.627V335.244L173.735 335.422C173.862 335.621 173.926 335.844 173.926 336.09C173.926 336.568 173.759 336.94 173.425 337.208C173.094 337.473 172.632 337.606 172.041 337.606L171.822 337.594L171.643 337.574C171.519 337.669 171.457 337.775 171.457 337.892C171.457 338.067 171.679 338.154 172.125 338.154H172.88C173.368 338.154 173.739 338.259 173.994 338.468C174.251 338.678 174.379 338.985 174.379 339.391C174.379 339.911 174.162 340.313 173.727 340.6C173.295 340.886 172.673 341.029 171.862 341.029C171.242 341.029 170.767 340.921 170.439 340.703C170.113 340.488 169.949 340.186 169.949 339.797C169.949 339.529 170.033 339.305 170.2 339.124C170.367 338.944 170.612 338.816 170.936 338.739C170.811 338.686 170.702 338.6 170.61 338.48C170.517 338.358 170.47 338.23 170.47 338.095C170.47 337.925 170.519 337.784 170.618 337.673C170.716 337.559 170.857 337.448 171.043 337.339C170.81 337.238 170.624 337.077 170.486 336.854C170.351 336.631 170.284 336.369 170.284 336.067C170.284 335.582 170.441 335.206 170.757 334.941C171.072 334.676 171.523 334.544 172.109 334.544C172.233 334.544 172.38 334.556 172.55 334.579C172.722 334.601 172.832 334.617 172.88 334.627H174.431ZM170.999 339.701C170.999 339.868 171.079 339.999 171.238 340.095C171.4 340.19 171.625 340.238 171.914 340.238C172.349 340.238 172.689 340.178 172.936 340.059C173.182 339.94 173.306 339.777 173.306 339.57C173.306 339.403 173.233 339.288 173.087 339.224C172.941 339.16 172.716 339.128 172.411 339.128H171.783C171.56 339.128 171.373 339.18 171.222 339.284C171.073 339.39 170.999 339.529 170.999 339.701ZM171.441 336.083C171.441 336.324 171.495 336.515 171.604 336.655C171.715 336.796 171.883 336.866 172.109 336.866C172.337 336.866 172.504 336.796 172.61 336.655C172.716 336.515 172.769 336.324 172.769 336.083C172.769 335.547 172.549 335.279 172.109 335.279C171.663 335.279 171.441 335.547 171.441 336.083Z" fill="white"/>
<path d="M41.5818 369.606H29.3663C22.6198 369.606 17.1507 375.075 17.1507 381.821C17.1507 388.568 22.6198 394.037 29.3663 394.037H41.5818C48.3283 394.037 53.7974 388.568 53.7974 381.821C53.7974 375.075 48.3283 369.606 41.5818 369.606Z" fill="black"/>
<path d="M37.2746 376.831C36.8175 376.373 36.179 376.121 35.4743 376.121C34.7658 376.121 34.1252 376.372 33.6702 376.827C33.2103 377.287 32.9862 377.913 33.0388 378.589C33.1431 379.922 34.2356 381.007 35.4743 381.007C36.713 381.007 37.8037 379.923 37.9096 378.589C37.9629 377.92 37.7374 377.295 37.2746 376.831ZM39.6087 385.893H31.3399C31.2317 385.894 31.1245 385.873 31.0262 385.831C30.9278 385.789 30.8408 385.727 30.7714 385.65C30.6187 385.481 30.5572 385.249 30.6028 385.015C30.801 383.994 31.4198 383.136 32.3923 382.534C33.2563 381.999 34.3507 381.705 35.4743 381.705C36.5979 381.705 37.6923 381.999 38.5563 382.534C39.5288 383.136 40.1476 383.994 40.3458 385.015C40.3914 385.249 40.3299 385.481 40.1772 385.65C40.1078 385.727 40.0208 385.789 39.9225 385.831C39.8241 385.873 39.7169 385.894 39.6087 385.893Z" fill="white"/>
<path d="M94.5159 385.079C94.3649 385.079 94.2179 385.037 94.0929 384.961C92.2469 383.829 91.4479 383.053 91.0069 382.568C90.0669 381.535 89.6179 380.473 89.6299 379.324C89.6449 378.006 90.8159 376.935 92.2399 376.935C93.2749 376.935 93.9919 377.462 94.4099 377.9C94.4229 377.914 94.4389 377.925 94.4579 377.933C94.4759 377.94 94.4959 377.944 94.5159 377.944C94.5359 377.944 94.5559 377.94 94.5749 377.933C94.5929 377.925 94.6089 377.914 94.6229 377.9C95.0399 377.461 95.7579 376.935 96.7929 376.935C98.2169 376.935 99.3869 378.006 99.4019 379.324C99.4149 380.474 98.9649 381.535 98.0259 382.569C97.5849 383.054 96.7849 383.829 94.9389 384.961C94.8139 385.038 94.6669 385.079 94.5159 385.079Z" fill="#B0AFB4"/>
<path d="M158.34 379.928C158.115 378.866 157.516 377.9 156.656 377.208C155.775 376.504 154.682 376.12 153.554 376.121C152.225 376.121 150.984 376.633 150.056 377.562C149.159 378.462 148.668 379.65 148.672 380.906C148.672 381.827 148.942 382.728 149.45 383.497L149.545 383.628L149.021 385.893L151.525 385.27C151.525 385.27 151.575 385.287 151.612 385.301C151.65 385.315 151.969 385.438 152.307 385.532C152.589 385.611 153.174 385.729 153.633 385.729C154.934 385.729 156.149 385.225 157.054 384.31C157.951 383.401 158.444 382.194 158.444 380.909C158.444 380.579 158.41 380.25 158.34 379.928ZM151.464 381.705C151.326 381.705 151.191 381.664 151.076 381.587C150.961 381.511 150.872 381.402 150.819 381.274C150.766 381.147 150.753 381.006 150.779 380.871C150.806 380.735 150.873 380.611 150.971 380.513C151.068 380.416 151.193 380.349 151.328 380.322C151.463 380.295 151.604 380.309 151.731 380.362C151.859 380.415 151.968 380.504 152.044 380.619C152.121 380.734 152.162 380.869 152.162 381.007C152.162 381.192 152.089 381.37 151.958 381.501C151.827 381.631 151.649 381.705 151.464 381.705ZM153.558 381.705C153.42 381.705 153.285 381.664 153.17 381.587C153.056 381.511 152.966 381.402 152.913 381.274C152.86 381.147 152.847 381.006 152.874 380.871C152.9 380.735 152.967 380.611 153.065 380.513C153.162 380.416 153.287 380.349 153.422 380.322C153.557 380.295 153.698 380.309 153.825 380.362C153.953 380.415 154.062 380.504 154.139 380.619C154.215 380.734 154.256 380.869 154.256 381.007C154.256 381.192 154.183 381.37 154.052 381.501C153.921 381.631 153.743 381.705 153.558 381.705ZM155.652 381.705C155.514 381.705 155.379 381.664 155.264 381.587C155.15 381.511 155.06 381.402 155.007 381.274C154.955 381.147 154.941 381.006 154.968 380.871C154.995 380.735 155.061 380.611 155.159 380.513C155.256 380.416 155.381 380.349 155.516 380.322C155.651 380.295 155.792 380.309 155.919 380.362C156.047 380.415 156.156 380.504 156.233 380.619C156.309 380.734 156.35 380.869 156.35 381.007C156.35 381.192 156.277 381.37 156.146 381.501C156.015 381.631 155.837 381.705 155.652 381.705Z" fill="#B0AFB4"/>
<path d="M18.2371 74.9388C19.7363 74.9388 20.9516 73.7238 20.9516 72.2248C20.9516 70.7248 19.7363 69.5098 18.2371 69.5098C16.7378 69.5098 15.5225 70.7248 15.5225 72.2248C15.5225 73.7238 16.7378 74.9388 18.2371 74.9388Z" stroke="#C4C4C4" stroke-width="0.814371" stroke-linecap="round" stroke-linejoin="round"/>
<path d="M21.6306 75.6178L20.1545 74.1418" stroke="#C4C4C4" stroke-width="0.814371" stroke-linecap="round" stroke-linejoin="round"/>
<path d="M29.5575 74.2158H32.2233V73.7488H30.111V72.0908H32.0483V71.6298H30.111V70.1128H32.1437L32.2105 69.6548H29.5575V74.2158ZM33.2278 74.2158H33.775V72.3648C33.775 72.2188 33.7941 72.0788 33.8354 71.9448C33.8736 71.8118 33.934 71.6908 34.0167 71.5818C34.0994 71.4738 34.2076 71.3918 34.3444 71.3278C34.478 71.2638 34.6339 71.2328 34.812 71.2328C35.0633 71.2328 35.2542 71.3058 35.3878 71.4518C35.5182 71.5978 35.585 71.8148 35.585 72.0978V74.2158H36.1322V71.9898C36.1322 71.8148 36.1067 71.6518 36.0622 71.5058C36.0145 71.3598 35.9445 71.2328 35.8523 71.1178C35.76 71.0068 35.6359 70.9208 35.4801 70.8568C35.3337 70.7998 35.1683 70.7708 34.9806 70.7708H34.9424C34.3762 70.7778 33.9786 71.0038 33.7495 71.4488L33.6636 70.8028H33.2278V74.2158ZM36.9936 71.2828H37.5153V73.2718C37.5153 73.4118 37.528 73.5388 37.5598 73.6498C37.5917 73.7648 37.6394 73.8668 37.7094 73.9588C37.7793 74.0538 37.8748 74.1268 38.002 74.1778C38.1261 74.2288 38.2756 74.2548 38.4506 74.2548C38.5142 74.2548 38.5778 74.2508 38.6478 74.2388C38.7178 74.2258 38.7782 74.2128 38.8355 74.1938C38.8896 74.1778 38.9436 74.1588 39.0009 74.1368C39.0582 74.1148 39.1027 74.0958 39.1409 74.0768C39.1759 74.0608 39.2077 74.0448 39.2363 74.0288C39.2618 74.0158 39.2777 74.0068 39.2808 74.0068L39.1345 73.5828L39.1122 73.5928C39.0963 73.6028 39.0804 73.6118 39.0645 73.6178C39.0486 73.6278 39.0263 73.6378 39.0009 73.6498C38.9754 73.6628 38.9468 73.6758 38.9214 73.6878C38.8959 73.7008 38.8641 73.7108 38.8323 73.7228C38.7973 73.7358 38.7655 73.7458 38.7337 73.7518C38.7019 73.7618 38.6701 73.7678 38.6382 73.7738C38.6033 73.7808 38.5714 73.7808 38.5428 73.7808C38.3838 73.7808 38.2629 73.7388 38.1833 73.6528C38.1006 73.5678 38.0625 73.4208 38.0625 73.2138V71.2828H38.9023L38.9914 70.8348H38.0625V69.8388L37.6107 69.9028L37.5408 70.8348H36.9936V71.2828ZM39.7764 72.4698C39.7764 72.7398 39.805 72.9818 39.8687 73.1948C39.9323 73.4118 40.0245 73.5988 40.1518 73.7578C40.279 73.9168 40.4445 74.0418 40.648 74.1268C40.8516 74.2128 41.0934 74.2548 41.367 74.2548C41.6501 74.2548 41.9173 74.1848 42.1718 74.0418C42.4263 73.8978 42.6235 73.6848 42.7667 73.4018L42.2895 73.2018C42.1941 73.3858 42.0668 73.5328 41.9078 73.6338C41.7487 73.7358 41.5706 73.7868 41.3733 73.7868C41.0171 73.7868 40.753 73.6788 40.5812 73.4588C40.4095 73.2398 40.3236 72.9378 40.3236 72.5498H42.7667L42.773 72.4378C42.7762 72.3808 42.7794 72.3238 42.7794 72.2658C42.7762 72.0758 42.7508 71.8938 42.6999 71.7288C42.6299 71.5188 42.5345 71.3408 42.4072 71.2008C42.2768 71.0668 42.1241 70.9618 41.9491 70.8858C41.7742 70.8128 41.5865 70.7738 41.3861 70.7708H41.3574C40.893 70.7708 40.5176 70.9208 40.225 71.2128C39.9259 71.5158 39.7764 71.9358 39.7764 72.4698ZM40.349 72.2088C40.3681 71.8848 40.4731 71.6368 40.6576 71.4648C40.8421 71.2928 41.0711 71.2068 41.3511 71.2068H41.3702C41.6247 71.2068 41.8282 71.2898 41.9873 71.4518C42.14 71.6138 42.2163 71.8528 42.2195 72.1708V72.2088H40.349ZM43.8317 74.2158H44.3788V72.3518C44.3788 72.0408 44.4584 71.7798 44.6238 71.5698C44.786 71.3598 45.031 71.2518 45.3618 71.2448H45.4032C45.524 71.2448 45.6449 71.2638 45.7658 71.2958L45.8453 70.8158C45.7117 70.7868 45.594 70.7708 45.4922 70.7708H45.4763C45.19 70.7708 44.9546 70.8318 44.7669 70.9528C44.5761 71.0768 44.4425 71.2578 44.3661 71.4998L44.2675 70.8028H43.8317V74.2158ZM47.9531 75.4408C48.0835 75.4728 48.2044 75.4918 48.3125 75.5048C48.4207 75.5178 48.5225 75.5238 48.6116 75.5238C48.7006 75.5238 48.7834 75.5138 48.8597 75.4918C48.936 75.4698 49.0028 75.4438 49.0633 75.4158C49.1206 75.3868 49.1778 75.3428 49.2319 75.2848C49.286 75.2278 49.3337 75.1708 49.3782 75.1138C49.4196 75.0558 49.4641 74.9828 49.5087 74.8908C49.5532 74.7988 49.5914 74.7098 49.6264 74.6238C49.6613 74.5378 49.7027 74.4298 49.7504 74.3018L51.0324 70.8028H50.4534L49.5882 73.3958H49.5341L48.5575 70.8028H47.9912L49.3019 74.0608C49.3019 74.0668 49.2987 74.0698 49.2955 74.0768C49.216 74.2928 49.1587 74.4388 49.1237 74.5218C49.0856 74.6048 49.0347 74.6998 48.9679 74.8078C48.8979 74.9158 48.8279 74.9798 48.7547 74.9988C48.6816 75.0178 48.5893 75.0308 48.4748 75.0308C48.4652 75.0338 48.4557 75.0338 48.4493 75.0338C48.338 75.0338 48.2044 75.0178 48.0485 74.9798L47.9531 75.4408ZM51.5757 72.5148C51.5757 72.7628 51.6043 72.9888 51.6648 73.1918C51.7252 73.3988 51.8175 73.5828 51.9384 73.7418C52.0592 73.9048 52.2215 74.0318 52.4251 74.1208C52.6255 74.2098 52.8577 74.2548 53.1249 74.2548C53.3667 74.2548 53.5894 74.2098 53.7866 74.1178C53.9838 74.0288 54.1492 73.9048 54.2765 73.7458C54.4037 73.5868 54.5024 73.4018 54.5723 73.1918C54.6423 72.9818 54.6773 72.7558 54.6773 72.5148C54.6773 72.2348 54.636 71.9798 54.5533 71.7538C54.4705 71.5278 54.356 71.3438 54.2161 71.2038C54.0761 71.0638 53.9138 70.9558 53.7325 70.8828C53.5512 70.8088 53.3571 70.7708 53.1536 70.7708C52.9309 70.7708 52.7273 70.8088 52.5396 70.8828C52.3487 70.9558 52.1833 71.0638 52.037 71.2038C51.8906 71.3438 51.7793 71.5278 51.6966 71.7508C51.6139 71.9768 51.5757 72.2308 51.5757 72.5148ZM52.142 72.5148C52.142 72.2918 52.1674 72.0948 52.2215 71.9228C52.2724 71.7538 52.3487 71.6208 52.4442 71.5218C52.5396 71.4268 52.6446 71.3528 52.7623 71.3058C52.88 71.2578 53.0104 71.2328 53.1536 71.2328C53.4303 71.2328 53.6625 71.3408 53.847 71.5538C54.0315 71.7668 54.1238 72.0878 54.1238 72.5148C54.1238 72.6828 54.1015 72.8418 54.0602 72.9948C54.0188 73.1478 53.9584 73.2808 53.8789 73.4018C53.7993 73.5228 53.6943 73.6178 53.5671 73.6878C53.4367 73.7578 53.2903 73.7928 53.1313 73.7928C52.95 73.7928 52.7941 73.7578 52.6605 73.6878C52.5269 73.6178 52.4251 73.5228 52.3519 73.3988C52.2787 73.2778 52.2247 73.1408 52.1928 72.9948C52.1579 72.8488 52.142 72.6898 52.142 72.5148ZM55.701 72.9598C55.701 73.3578 55.8091 73.6758 56.0254 73.9108C56.229 74.1368 56.5122 74.2478 56.8812 74.2478H56.9511C57.2629 74.2358 57.5174 74.1498 57.7146 73.9868C57.9119 73.8248 58.0614 73.6118 58.1568 73.3508L58.2331 74.2158H58.6785V70.8028H58.1314V72.3588C58.1314 72.5178 58.1091 72.6768 58.0677 72.8358C58.0232 72.9978 57.9628 73.1508 57.88 73.2968C57.7973 73.4428 57.6892 73.5608 57.5492 73.6498C57.4092 73.7418 57.2534 73.7868 57.0816 73.7868C56.8207 73.7868 56.6171 73.7138 56.4708 73.5638C56.3213 73.4178 56.2481 73.2018 56.2481 72.9188V70.8028H55.701V72.9598ZM59.8739 74.2158H60.4211V72.3518C60.4211 72.0408 60.5006 71.7798 60.666 71.5698C60.8283 71.3598 61.0732 71.2518 61.4041 71.2448H61.4454C61.5663 71.2448 61.6872 71.2638 61.8081 71.2958L61.8876 70.8158C61.754 70.7868 61.6363 70.7708 61.5345 70.7708H61.5186C61.2323 70.7708 60.9969 70.8318 60.8092 70.9528C60.6183 71.0768 60.4847 71.2578 60.4084 71.4998L60.3097 70.8028H59.8739V74.2158ZM64.3007 73.2778C64.3007 73.9298 64.5966 74.2548 65.1946 74.2548C65.4427 74.2548 65.6779 74.1808 65.9039 74.0288L65.7609 73.6248L65.7449 73.6378C65.7319 73.6438 65.7199 73.6528 65.7039 73.6598C65.6879 73.6688 65.6689 73.6788 65.6459 73.6878C65.6239 73.7008 65.6019 73.7108 65.5759 73.7198C65.5509 73.7328 65.5219 73.7418 65.4939 73.7518C65.4649 73.7618 65.4332 73.7678 65.4014 73.7738C65.3696 73.7808 65.3378 73.7808 65.3091 73.7808C65.1533 73.7808 65.0356 73.7418 64.9592 73.6628C64.8797 73.5828 64.8415 73.4428 64.8415 73.2398V69.2378L64.3007 69.3178V73.2778ZM66.2439 72.5148C66.2439 72.7628 66.2719 72.9888 66.3329 73.1918C66.3929 73.3988 66.4859 73.5828 66.6059 73.7418C66.7269 73.9048 66.8899 74.0318 67.0929 74.1208C67.2939 74.2098 67.5259 74.2548 67.7929 74.2548C68.0349 74.2548 68.2569 74.2098 68.4549 74.1178C68.6519 74.0288 68.8169 73.9048 68.9449 73.7458C69.0719 73.5868 69.1699 73.4018 69.2399 73.1918C69.3099 72.9818 69.3449 72.7558 69.3449 72.5148C69.3449 72.2348 69.3039 71.9798 69.2209 71.7538C69.1389 71.5278 69.0239 71.3438 68.8839 71.2038C68.7439 71.0638 68.5819 70.9558 68.4009 70.8828C68.2189 70.8088 68.0249 70.7708 67.8219 70.7708C67.5989 70.7708 67.3949 70.8088 67.2079 70.8828C67.0169 70.9558 66.8509 71.0638 66.7049 71.2038C66.5589 71.3438 66.4469 71.5278 66.3649 71.7508C66.2819 71.9768 66.2439 72.2308 66.2439 72.5148ZM66.8099 72.5148C66.8099 72.2918 66.8349 72.0948 66.8899 71.9228C66.9399 71.7538 67.0169 71.6208 67.1119 71.5218C67.2079 71.4268 67.3129 71.3528 67.4299 71.3058C67.5479 71.2578 67.6779 71.2328 67.8219 71.2328C68.0979 71.2328 68.3309 71.3408 68.5149 71.5538C68.6999 71.7668 68.7919 72.0878 68.7919 72.5148C68.7919 72.6828 68.7699 72.8418 68.7279 72.9948C68.6869 73.1478 68.6259 73.2808 68.5469 73.4018C68.4669 73.5228 68.3619 73.6178 68.2349 73.6878C68.1049 73.7578 67.9579 73.7928 67.7989 73.7928C67.6179 73.7928 67.4619 73.7578 67.3289 73.6878C67.1949 73.6178 67.0929 73.5228 67.0199 73.3988C66.9469 73.2778 66.8929 73.1408 66.8609 72.9948C66.8259 72.8488 66.8099 72.6898 66.8099 72.5148ZM70.2579 72.5078C70.2579 72.6958 70.2769 72.8738 70.3149 73.0428C70.3529 73.2108 70.4139 73.3698 70.4959 73.5168C70.5789 73.6658 70.6809 73.7968 70.8019 73.9048C70.9229 74.0128 71.0689 74.0988 71.2439 74.1618C71.4159 74.2258 71.6099 74.2548 71.8199 74.2548C72.1409 74.2548 72.4239 74.1848 72.6689 74.0418C72.9109 73.8978 73.0949 73.6758 73.2229 73.3768L72.7199 73.1858C72.6309 73.3888 72.5129 73.5418 72.3729 73.6378C72.2299 73.7328 72.0519 73.7808 71.8359 73.7808C71.6539 73.7808 71.4949 73.7458 71.3579 73.6758C71.2179 73.6058 71.1099 73.5098 71.0339 73.3888C70.9539 73.2678 70.8939 73.1318 70.8559 72.9788C70.8179 72.8298 70.7989 72.6668 70.7989 72.4888C70.7989 72.0848 70.8969 71.7728 71.0939 71.5568C71.2919 71.3408 71.5429 71.2328 71.8479 71.2328C72.0519 71.2328 72.2269 71.2868 72.3759 71.3918C72.5259 71.4968 72.6339 71.6428 72.7009 71.8308L73.2029 71.6488C73.1109 71.3728 72.9459 71.1558 72.7069 70.9998C72.4689 70.8478 72.1849 70.7708 71.8609 70.7708H71.8479C71.6219 70.7738 71.4119 70.8158 71.2219 70.8918C71.0279 70.9688 70.8589 71.0798 70.7159 71.2228C70.5729 71.3688 70.4609 71.5508 70.3789 71.7698C70.2959 71.9928 70.2579 72.2378 70.2579 72.5078ZM73.9819 73.1918C73.9819 73.5448 74.0899 73.8088 74.3099 73.9868C74.5289 74.1658 74.8189 74.2548 75.1749 74.2548C75.2829 74.2548 75.3909 74.2418 75.4999 74.2158C75.6079 74.1908 75.6969 74.1658 75.7699 74.1338C75.8429 74.1018 75.9229 74.0608 76.0049 74.0068C76.0879 73.9558 76.1489 73.9138 76.1829 73.8888C76.2149 73.8628 76.2599 73.8278 76.3169 73.7808C76.3329 73.9168 76.3869 74.0318 76.4759 74.1208C76.5649 74.2098 76.6829 74.2548 76.8289 74.2548C76.9629 74.2548 77.1119 74.2288 77.2749 74.1718V73.7928L77.2299 73.8058C77.1979 73.8158 77.1599 73.8218 77.1089 73.8278C77.0579 73.8348 77.0109 73.8378 76.9719 73.8318C76.8709 73.8218 76.8229 73.7578 76.8229 73.6378V72.0088C76.8229 71.1848 76.3649 70.7708 75.4489 70.7708C75.3339 70.7708 75.2229 70.7808 75.1079 70.7938C74.9939 70.8058 74.8889 70.8248 74.7869 70.8508C74.6849 70.8758 74.6019 70.8948 74.5389 70.9138C74.4719 70.9338 74.4019 70.9558 74.3259 70.9808C74.2489 71.0068 74.2079 71.0228 74.2049 71.0228L74.3099 71.4548L74.4399 71.3978C74.5289 71.3598 74.6629 71.3178 74.8439 71.2798C75.0259 71.2418 75.2099 71.2198 75.3979 71.2198H75.4199C75.9889 71.2198 76.2759 71.4618 76.2759 71.9418V72.2278C75.9829 72.1578 75.6779 72.1198 75.3659 72.1198C74.9459 72.1198 74.6119 72.2118 74.3579 72.3938C74.1059 72.5748 73.9819 72.8418 73.9819 73.1918ZM74.5289 73.1598C74.5289 72.9338 74.5989 72.7628 74.7459 72.6478C74.8919 72.5338 75.0989 72.4698 75.3719 72.4638H75.4229C75.6839 72.4638 75.9669 72.4948 76.2759 72.5558V73.4338C76.2059 73.4848 76.1489 73.5228 76.1039 73.5518C76.0589 73.5798 75.9889 73.6178 75.8939 73.6658C75.7989 73.7168 75.6999 73.7518 75.5919 73.7768C75.4839 73.8028 75.3749 73.8118 75.2609 73.8118H75.2479C75.0189 73.8158 74.8439 73.7578 74.7169 73.6438C74.5899 73.5358 74.5289 73.3798 74.5289 73.1788V73.1598ZM77.8179 71.2828H78.3399V73.2718C78.3399 73.4118 78.3519 73.5388 78.3839 73.6498C78.4159 73.7648 78.4639 73.8668 78.5339 73.9588C78.6039 74.0538 78.6989 74.1268 78.8259 74.1778C78.9499 74.2288 79.0999 74.2548 79.2749 74.2548C79.3389 74.2548 79.4019 74.2508 79.4719 74.2388C79.5419 74.2258 79.6029 74.2128 79.6599 74.1938C79.7139 74.1778 79.7679 74.1588 79.8249 74.1368C79.8819 74.1148 79.9269 74.0958 79.9649 74.0768C79.9999 74.0608 80.0319 74.0448 80.0609 74.0288C80.0859 74.0158 80.1019 74.0068 80.1049 74.0068L79.9589 73.5828L79.9369 73.5928C79.9209 73.6028 79.9049 73.6118 79.8889 73.6178C79.8729 73.6278 79.8509 73.6378 79.8249 73.6498C79.7999 73.6628 79.7709 73.6758 79.7459 73.6878C79.7199 73.7008 79.6879 73.7108 79.6569 73.7228C79.6219 73.7358 79.5899 73.7458 79.5579 73.7518C79.5259 73.7618 79.4939 73.7678 79.4629 73.7738C79.4279 73.7808 79.3959 73.7808 79.3669 73.7808C79.2079 73.7808 79.0869 73.7388 79.0079 73.6528C78.9249 73.5678 78.8869 73.4208 78.8869 73.2138V71.2828H79.7269L79.8159 70.8348H78.8869V69.8388L78.4349 69.9028L78.3649 70.8348H77.8179V71.2828ZM80.5979 71.2578H81.1159V74.2158H81.6659V70.8028H80.5979V71.2578ZM81.0329 69.7918C81.0329 69.8868 81.0649 69.9658 81.1289 70.0298C81.1919 70.0938 81.2749 70.1258 81.3829 70.1258C81.4849 70.1258 81.5679 70.0968 81.6379 70.0358C81.7079 69.9758 81.7429 69.8928 81.7429 69.7918C81.7429 69.6988 81.7079 69.6228 81.6379 69.5588C81.5679 69.4988 81.4819 69.4668 81.3829 69.4668C81.2749 69.4668 81.1919 69.4988 81.1289 69.5618C81.0649 69.6258 81.0329 69.7018 81.0329 69.7918ZM82.7249 72.5148C82.7249 72.7628 82.7539 72.9888 82.8139 73.1918C82.8749 73.3988 82.9669 73.5828 83.0879 73.7418C83.2089 73.9048 83.3709 74.0318 83.5739 74.1208C83.7749 74.2098 84.0069 74.2548 84.2739 74.2548C84.5159 74.2548 84.7389 74.2098 84.9359 74.1178C85.1329 74.0288 85.2989 73.9048 85.4259 73.7458C85.5529 73.5868 85.6519 73.4018 85.7219 73.1918C85.7919 72.9818 85.8269 72.7558 85.8269 72.5148C85.8269 72.2348 85.7849 71.9798 85.7029 71.7538C85.6199 71.5278 85.5049 71.3438 85.3649 71.2038C85.2249 71.0638 85.0629 70.9558 84.8819 70.8828C84.7009 70.8088 84.5059 70.7708 84.3029 70.7708C84.0799 70.7708 83.8769 70.8088 83.6889 70.8828C83.4979 70.9558 83.3329 71.0638 83.1859 71.2038C83.0399 71.3438 82.9289 71.5278 82.8459 71.7508C82.7629 71.9768 82.7249 72.2308 82.7249 72.5148ZM83.2909 72.5148C83.2909 72.2918 83.3169 72.0948 83.3709 71.9228C83.4219 71.7538 83.4979 71.6208 83.5939 71.5218C83.6889 71.4268 83.7939 71.3528 83.9119 71.3058C84.0289 71.2578 84.1599 71.2328 84.3029 71.2328C84.5799 71.2328 84.8119 71.3408 84.9959 71.5538C85.1809 71.7668 85.2729 72.0878 85.2729 72.5148C85.2729 72.6828 85.2509 72.8418 85.2099 72.9948C85.1679 73.1478 85.1079 73.2808 85.0279 73.4018C84.9489 73.5228 84.8439 73.6178 84.7159 73.6878C84.5859 73.7578 84.4399 73.7928 84.2809 73.7928C84.0989 73.7928 83.9429 73.7578 83.8099 73.6878C83.6759 73.6178 83.5739 73.5228 83.5009 73.3988C83.4279 73.2778 83.3739 73.1408 83.3419 72.9948C83.3069 72.8488 83.2909 72.6898 83.2909 72.5148ZM86.8759 74.2158H87.4229V72.3648C87.4229 72.2188 87.4419 72.0788 87.4829 71.9448C87.5219 71.8118 87.5819 71.6908 87.6649 71.5818C87.7469 71.4738 87.8559 71.3918 87.9919 71.3278C88.1259 71.2638 88.2819 71.2328 88.4599 71.2328C88.7109 71.2328 88.9019 71.3058 89.0359 71.4518C89.1659 71.5978 89.2329 71.8148 89.2329 72.0978V74.2158H89.7799V71.9898C89.7799 71.8148 89.7549 71.6518 89.7099 71.5058C89.6619 71.3598 89.5919 71.2328 89.4999 71.1178C89.4079 71.0068 89.2839 70.9208 89.1279 70.8568C88.9819 70.7998 88.8159 70.7708 88.6289 70.7708H88.5899C88.0239 70.7778 87.6269 71.0038 87.3969 71.4488L87.3119 70.8028H86.8759V74.2158Z" fill="#878789"/>
<defs>
<filter id="filter0_d" x="2.08497" y="235.235" width="185.269" height="59.8562" filterUnits="userSpaceOnUse" color-interpolation-filters="sRGB">
<feFlood flood-opacity="0" result="BackgroundImageFix"/>
<feColorMatrix in="SourceAlpha" type="matrix" values="0 0 0 0 0 0 0 0 0 0 0 0 0 0 0 0 0 0 127 0" result="hardAlpha"/>
<feOffset/>
<feGaussianBlur stdDeviation="2.44311"/>
<feColorMatrix type="matrix" values="0 0 0 0 0 0 0 0 0 0 0 0 0 0 0 0 0 0 0.4 0"/>
<feBlend mode="normal" in2="BackgroundImageFix" result="effect1_dropShadow"/>
<feBlend mode="normal" in="SourceGraphic" in2="effect1_dropShadow" result="shape"/>
</filter>
</defs>
</svg>
