<svg width="auto" height="auto" viewBox="0 0 241 487" fill="none" xmlns="http://www.w3.org/2000/svg">
<path d="M202.806 0.528442H37.6784C16.9518 0.528442 0.149536 17.3307 0.149536 38.0573V449.375C0.149536 470.101 16.9518 486.903 37.6784 486.903H202.806C223.532 486.903 240.335 470.101 240.335 449.375V38.0573C240.335 17.3307 223.532 0.528442 202.806 0.528442Z" fill="white"/>
<path d="M194.752 0.528442H45.1588C24.4332 0.528442 7.63171 17.3299 7.63171 38.0555V449.194C7.63171 469.92 24.4332 486.721 45.1588 486.721H194.752C215.477 486.721 232.279 469.92 232.279 449.194V38.0555C232.279 17.3299 215.477 0.528442 194.752 0.528442Z" fill="white"/>
<path d="M75.8708 37.5284H73.8988V29.8723H71.3748V28.2317H78.3948V29.8723H75.8708V37.5284ZM83.7768 30.2856C84.0398 30.2856 84.2578 30.3047 84.4318 30.3428L84.2858 32.1615C84.1288 32.1191 83.9378 32.0979 83.7128 32.0979C83.0938 32.0979 82.6108 32.2569 82.2628 32.5748C81.9198 32.8928 81.7478 33.3379 81.7478 33.9102V37.5284H79.8088V30.4191H81.2778L81.5638 31.6146H81.6588C81.8798 31.2161 82.1768 30.8961 82.5498 30.6544C82.9268 30.4086 83.3358 30.2856 83.7768 30.2856ZM90.3728 37.5284L89.9978 36.5618H89.9468C89.6208 36.9731 89.2838 37.2592 88.9358 37.4203C88.5928 37.5772 88.1428 37.6556 87.5878 37.6556C86.9048 37.6556 86.3668 37.4606 85.9728 37.0706C85.5828 36.6805 85.3878 36.1252 85.3878 35.4045C85.3878 34.6499 85.6508 34.0946 86.1758 33.7385C86.7058 33.3782 87.5028 33.1789 88.5668 33.1408L89.8008 33.1026V32.791C89.8008 32.0703 89.4318 31.71 88.6938 31.71C88.1258 31.71 87.4588 31.8817 86.6908 32.2251L86.0488 30.9151C86.8668 30.487 87.7738 30.2729 88.7708 30.2729C89.7248 30.2729 90.4558 30.4806 90.9648 30.8961C91.4728 31.3115 91.7278 31.9432 91.7278 32.791V37.5284H90.3728ZM89.8008 34.2345L89.0508 34.2599C88.4868 34.2769 88.0668 34.3786 87.7908 34.5652C87.5158 34.7517 87.3778 35.0357 87.3778 35.4172C87.3778 35.9641 87.6918 36.2375 88.3188 36.2375C88.7688 36.2375 89.1268 36.1082 89.3938 35.8497C89.6648 35.5911 89.8008 35.2477 89.8008 34.8195V34.2345ZM100.429 37.5284H98.4888V33.376C98.4888 32.8631 98.3978 32.4794 98.2158 32.2251C98.0338 31.9665 97.7428 31.8372 97.3448 31.8372C96.8018 31.8372 96.4098 32.0195 96.1678 32.384C95.9268 32.7444 95.8058 33.3442 95.8058 34.1836V37.5284H93.8658V30.4191H95.3478L95.6088 31.3285H95.7168C95.9328 30.9851 96.2298 30.7265 96.6068 30.5527C96.9888 30.3746 97.4208 30.2856 97.9038 30.2856C98.7308 30.2856 99.3578 30.5103 99.7858 30.9597C100.215 31.4048 100.429 32.0491 100.429 32.8928V37.5284ZM107.521 35.4172C107.521 36.1464 107.267 36.7017 106.758 37.0833C106.253 37.4648 105.497 37.6556 104.488 37.6556C103.971 37.6556 103.53 37.6195 103.165 37.5475C102.801 37.4796 102.459 37.3779 102.141 37.2422V35.6398C102.502 35.8094 102.907 35.9514 103.356 36.0659C103.81 36.1803 104.208 36.2375 104.551 36.2375C105.255 36.2375 105.607 36.0341 105.607 35.6271C105.607 35.4745 105.56 35.3515 105.467 35.2583C105.374 35.1608 105.213 35.0527 104.984 34.934C104.755 34.811 104.45 34.669 104.068 34.5079C103.521 34.279 103.119 34.067 102.86 33.872C102.606 33.677 102.419 33.4545 102.3 33.2043C102.186 32.95 102.129 32.6384 102.129 32.2696C102.129 31.6379 102.372 31.1504 102.86 30.807C103.352 30.4594 104.047 30.2856 104.946 30.2856C105.802 30.2856 106.635 30.4721 107.445 30.8452L106.86 32.2442C106.504 32.0915 106.171 31.9665 105.861 31.869C105.552 31.7715 105.236 31.7227 104.914 31.7227C104.342 31.7227 104.055 31.8775 104.055 32.1869C104.055 32.3607 104.147 32.5112 104.329 32.6384C104.515 32.7656 104.92 32.9542 105.543 33.2043C106.099 33.429 106.506 33.6389 106.764 33.8339C107.023 34.0289 107.214 34.2536 107.337 34.5079C107.46 34.7623 107.521 35.0654 107.521 35.4172ZM113.1 31.8753H111.421V37.5284H109.482V31.8753H108.413V30.9406L109.482 30.4191V29.8977C109.482 29.088 109.681 28.4966 110.079 28.1236C110.478 27.7505 111.116 27.564 111.993 27.564C112.663 27.564 113.259 27.6636 113.78 27.8629L113.284 29.2873C112.894 29.1643 112.534 29.1029 112.203 29.1029C111.928 29.1029 111.728 29.1855 111.606 29.3509C111.483 29.5119 111.421 29.7197 111.421 29.974V30.4191H113.1V31.8753ZM117.299 31.6655C116.888 31.6655 116.565 31.7969 116.332 32.0597C116.099 32.3183 115.966 32.6872 115.932 33.1662H118.653C118.645 32.6872 118.52 32.3183 118.278 32.0597C118.037 31.7969 117.71 31.6655 117.299 31.6655ZM117.572 37.6556C116.428 37.6556 115.533 37.3398 114.889 36.7081C114.244 36.0765 113.922 35.182 113.922 34.0246C113.922 32.8334 114.219 31.9135 114.813 31.2649C115.41 30.612 116.235 30.2856 117.286 30.2856C118.291 30.2856 119.073 30.5718 119.633 31.1441C120.192 31.7164 120.472 32.507 120.472 33.5159V34.4571H115.887C115.908 35.0082 116.072 35.4384 116.377 35.7479C116.682 36.0574 117.11 36.2121 117.661 36.2121C118.089 36.2121 118.494 36.1676 118.876 36.0786C119.257 35.9895 119.656 35.8475 120.071 35.6525V37.1532C119.732 37.3228 119.37 37.4479 118.984 37.5284C118.598 37.6132 118.128 37.6556 117.572 37.6556ZM126.153 30.2856C126.415 30.2856 126.634 30.3047 126.808 30.3428L126.661 32.1615C126.504 32.1191 126.314 32.0979 126.089 32.0979C125.47 32.0979 124.987 32.2569 124.639 32.5748C124.296 32.8928 124.124 33.3379 124.124 33.9102V37.5284H122.185V30.4191H123.654L123.94 31.6146H124.035C124.256 31.2161 124.552 30.8961 124.925 30.6544C125.303 30.4086 125.712 30.2856 126.153 30.2856ZM135.841 37.5284L133.603 30.2347H133.546C133.626 31.7185 133.667 32.7084 133.667 33.2043V37.5284H131.905V28.2317H134.589L136.789 35.3409H136.827L139.161 28.2317H141.844V37.5284H140.007V33.128C140.007 32.9203 140.009 32.6808 140.013 32.4095C140.021 32.1382 140.051 31.4175 140.102 30.2475H140.045L137.647 37.5284H135.841ZM145.719 33.9611C145.719 34.6648 145.833 35.1968 146.062 35.5571C146.295 35.9175 146.673 36.0976 147.194 36.0976C147.711 36.0976 148.082 35.9196 148.307 35.5635C148.536 35.2032 148.65 34.669 148.65 33.9611C148.65 33.2573 148.536 32.7295 148.307 32.3777C148.078 32.0258 147.703 31.8499 147.181 31.8499C146.664 31.8499 146.291 32.0258 146.062 32.3777C145.833 32.7253 145.719 33.2531 145.719 33.9611ZM150.634 33.9611C150.634 35.1184 150.329 36.0235 149.719 36.6763C149.108 37.3292 148.258 37.6556 147.169 37.6556C146.486 37.6556 145.884 37.5072 145.363 37.2105C144.841 36.9095 144.441 36.4792 144.161 35.9196C143.881 35.36 143.741 34.7072 143.741 33.9611C143.741 32.7995 144.044 31.8965 144.651 31.2522C145.257 30.6078 146.109 30.2856 147.207 30.2856C147.889 30.2856 148.491 30.434 149.013 30.7307C149.534 31.0275 149.935 31.4535 150.215 32.0089C150.494 32.5642 150.634 33.2149 150.634 33.9611ZM158.935 37.5284H156.995V33.376C156.995 32.8631 156.904 32.4794 156.722 32.2251C156.54 31.9665 156.249 31.8372 155.851 31.8372C155.308 31.8372 154.916 32.0195 154.674 32.384C154.433 32.7444 154.312 33.3442 154.312 34.1836V37.5284H152.372V30.4191H153.854L154.115 31.3285H154.223C154.439 30.9851 154.736 30.7265 155.113 30.5527C155.495 30.3746 155.927 30.2856 156.41 30.2856C157.237 30.2856 157.864 30.5103 158.293 30.9597C158.721 31.4048 158.935 32.0491 158.935 32.8928V37.5284ZM164.011 31.6655C163.6 31.6655 163.278 31.7969 163.045 32.0597C162.812 32.3183 162.678 32.6872 162.644 33.1662H165.366C165.357 32.6872 165.232 32.3183 164.991 32.0597C164.749 31.7969 164.423 31.6655 164.011 31.6655ZM164.285 37.6556C163.14 37.6556 162.246 37.3398 161.601 36.7081C160.957 36.0765 160.635 35.182 160.635 34.0246C160.635 32.8334 160.932 31.9135 161.525 31.2649C162.123 30.612 162.947 30.2856 163.999 30.2856C165.003 30.2856 165.785 30.5718 166.345 31.1441C166.905 31.7164 167.184 32.507 167.184 33.5159V34.4571H162.6C162.621 35.0082 162.784 35.4384 163.089 35.7479C163.395 36.0574 163.823 36.2121 164.374 36.2121C164.802 36.2121 165.207 36.1676 165.588 36.0786C165.97 35.9895 166.368 35.8475 166.784 35.6525V37.1532C166.445 37.3228 166.082 37.4479 165.696 37.5284C165.311 37.6132 164.84 37.6556 164.285 37.6556ZM167.88 30.4191H170.004L171.345 34.4189C171.46 34.7665 171.538 35.1777 171.581 35.6525H171.619C171.665 35.2159 171.756 34.8047 171.892 34.4189L173.208 30.4191H175.288L172.28 38.4377C172.004 39.1796 171.61 39.7349 171.097 40.1038C170.589 40.4726 169.993 40.657 169.31 40.657C168.976 40.657 168.647 40.6209 168.325 40.5489V39.01C168.558 39.0651 168.812 39.0927 169.088 39.0927C169.431 39.0927 169.73 38.9867 169.984 38.7747C170.243 38.567 170.444 38.2512 170.589 37.8273L170.703 37.4775L167.88 30.4191Z" fill="#351F6F"/>
<path d="M80.9158 60.9637H84.2138V71.2174H85.6208V60.9637H88.8558L88.9518 59.8191H80.9158V60.9637ZM89.2458 66.9649C89.2458 67.5849 89.3178 68.1493 89.4688 68.6584C89.6198 69.1744 89.8508 69.6354 90.1528 70.0334C90.4548 70.4384 90.8598 70.7564 91.3688 70.9794C91.8688 71.2014 92.4498 71.3124 93.1168 71.3124C93.7208 71.3124 94.2778 71.2014 94.7708 70.9714C95.2638 70.7484 95.6768 70.4384 95.9948 70.0414C96.3128 69.6434 96.5588 69.1824 96.7338 68.6584C96.9088 68.1334 96.9958 67.569 96.9958 66.9649C96.9958 66.2654 96.8928 65.6295 96.6858 65.0652C96.4798 64.5008 96.1938 64.0398 95.8438 63.6901C95.4938 63.3403 95.0888 63.0701 94.6358 62.8873C94.1828 62.7044 93.6978 62.6091 93.1888 62.6091C92.6328 62.6091 92.1238 62.7044 91.6548 62.8873C91.1778 63.0701 90.7648 63.3403 90.3988 63.6901C90.0328 64.0398 89.7548 64.5008 89.5478 65.0572C89.3418 65.6216 89.2458 66.2575 89.2458 66.9649ZM90.6608 66.9649C90.6608 66.4085 90.7248 65.9157 90.8598 65.4865C90.9868 65.0652 91.1778 64.7313 91.4158 64.4849C91.6548 64.2465 91.9168 64.0637 92.2108 63.9444C92.5048 63.8252 92.8308 63.7616 93.1888 63.7616C93.8798 63.7616 94.4608 64.0319 94.9218 64.5644C95.3828 65.097 95.6128 65.8998 95.6128 66.9649C95.6128 67.3862 95.5578 67.7836 95.4538 68.1652C95.3508 68.5464 95.1998 68.8804 95.0008 69.1824C94.8028 69.4844 94.5398 69.7234 94.2218 69.8984C93.8958 70.0724 93.5308 70.1604 93.1328 70.1604C92.6798 70.1604 92.2908 70.0724 91.9568 69.8984C91.6228 69.7234 91.3688 69.4844 91.1858 69.1744C91.0028 68.8724 90.8678 68.5304 90.7878 68.1652C90.7008 67.7995 90.6608 67.4021 90.6608 66.9649ZM99.4688 71.2174H100.836V66.5913C100.836 64.6996 101.575 63.7457 103.07 63.7457C103.69 63.7457 104.143 63.9285 104.429 64.2862C104.715 64.6519 104.858 65.1924 104.858 65.9236V71.2174H106.209V66.3688C106.209 66.0826 106.225 65.8203 106.273 65.5739C106.321 65.3275 106.392 65.089 106.503 64.8585C106.607 64.636 106.742 64.4372 106.909 64.2783C107.076 64.1193 107.29 63.9842 107.553 63.8888C107.815 63.7934 108.117 63.7457 108.451 63.7457C109.071 63.7457 109.524 63.9285 109.81 64.2862C110.088 64.6519 110.231 65.1924 110.231 65.9236V71.2174H111.598V65.6534C111.598 65.2083 111.543 64.8108 111.447 64.4452C111.344 64.0875 111.185 63.7616 110.971 63.4755C110.748 63.1893 110.454 62.9747 110.088 62.8237C109.739 62.6885 109.333 62.617 108.872 62.6091H108.777C108.403 62.617 108.045 62.6727 107.704 62.7839C107.354 62.8952 107.028 63.0701 106.71 63.3165C106.392 63.5708 106.154 63.8729 105.995 64.2306C105.605 63.1496 104.779 62.6091 103.507 62.6091H103.411C102.839 62.625 102.314 62.776 101.846 63.0621C101.369 63.3483 101.011 63.7616 100.772 64.3021L100.574 62.6885H99.4688V71.2174ZM117.72 69.9774L117.903 70.1204C118.022 70.2154 118.213 70.3274 118.467 70.4544C118.722 70.5814 119.008 70.7164 119.334 70.8434C119.652 70.9714 120.049 71.0824 120.526 71.1774C121.003 71.2734 121.488 71.3124 121.988 71.3124C122.799 71.3124 123.515 71.1934 124.135 70.9394C124.755 70.6844 125.255 70.3034 125.621 69.7784C125.987 69.2624 126.177 68.6424 126.185 67.9108C126.185 67.3941 126.058 66.9411 125.82 66.5516C125.573 66.1621 125.255 65.8521 124.874 65.6295C124.484 65.407 124.055 65.2083 123.586 65.0334C123.109 64.8585 122.64 64.7075 122.171 64.5644C121.702 64.4293 121.273 64.2783 120.891 64.1193C120.502 63.9603 120.184 63.7457 119.946 63.4834C119.699 63.2291 119.58 62.9191 119.58 62.5534C119.58 61.4565 120.399 60.9001 122.036 60.9001C122.33 60.9001 122.648 60.9399 122.998 61.0034C123.348 61.075 123.65 61.1545 123.904 61.234C124.158 61.3134 124.413 61.4088 124.675 61.5122C124.929 61.6234 125.104 61.695 125.192 61.7347C125.271 61.7824 125.343 61.8142 125.39 61.838L125.931 60.7491L125.406 60.5027C125.057 60.3358 124.556 60.1688 123.904 59.994C123.252 59.827 122.624 59.7396 122.02 59.7396C120.828 59.7396 119.898 59.994 119.214 60.4868C118.531 60.9796 118.181 61.7029 118.181 62.6568C118.181 63.0542 118.253 63.4039 118.404 63.7219C118.555 64.0398 118.761 64.3101 119.016 64.5167C119.27 64.7313 119.556 64.9221 119.89 65.097C120.224 65.2719 120.574 65.4149 120.939 65.5421C121.305 65.6693 121.663 65.7885 122.028 65.8998C122.394 66.019 122.736 66.1462 123.069 66.2734C123.403 66.4006 123.697 66.5436 123.952 66.7026C124.206 66.8616 124.405 67.0523 124.556 67.2749C124.707 67.5054 124.786 67.7598 124.786 68.0459C124.77 68.6734 124.508 69.1824 123.999 69.5644C123.491 69.9534 122.807 70.1444 121.957 70.1444C121.575 70.1444 121.186 70.1044 120.804 70.0094C120.423 69.9214 120.097 69.8264 119.842 69.7154C119.588 69.6034 119.334 69.4764 119.095 69.3334C118.849 69.1904 118.69 69.0954 118.618 69.0394L118.443 68.9044L117.72 69.9774ZM128.006 66.949C128.006 67.418 128.054 67.8631 128.149 68.2844C128.245 68.7054 128.396 69.1034 128.602 69.4684C128.809 69.8424 129.063 70.1684 129.365 70.4384C129.667 70.7084 130.033 70.9234 130.47 71.0824C130.899 71.2414 131.384 71.3124 131.909 71.3124C132.712 71.3124 133.419 71.1384 134.031 70.7804C134.635 70.4224 135.096 69.8664 135.414 69.1194L134.158 68.6424C133.936 69.1504 133.642 69.5324 133.292 69.7704C132.934 70.0094 132.489 70.1284 131.949 70.1284C131.495 70.1284 131.098 70.0414 130.756 69.8664C130.407 69.6914 130.136 69.4524 129.946 69.1504C129.747 68.8484 129.596 68.5069 129.5 68.1254C129.405 67.7518 129.357 67.3464 129.357 66.9013C129.357 65.8918 129.604 65.1129 130.097 64.5724C130.589 64.0319 131.217 63.7616 131.98 63.7616C132.489 63.7616 132.926 63.8967 133.3 64.159C133.673 64.4213 133.944 64.787 134.111 65.256L135.366 64.8029C135.136 64.1114 134.723 63.5708 134.126 63.1814C133.53 62.7998 132.823 62.6091 132.012 62.6091H131.98C131.416 62.617 130.891 62.7203 130.414 62.9111C129.93 63.1019 129.508 63.3801 129.151 63.7378C128.793 64.1034 128.515 64.5565 128.308 65.1049C128.101 65.6613 128.006 66.2734 128.006 66.949ZM137.33 66.9649C137.33 67.5849 137.402 68.1493 137.553 68.6584C137.704 69.1744 137.934 69.6354 138.236 70.0334C138.539 70.4384 138.944 70.7564 139.453 70.9794C139.953 71.2014 140.534 71.3124 141.201 71.3124C141.805 71.3124 142.362 71.2014 142.855 70.9714C143.347 70.7484 143.761 70.4384 144.079 70.0414C144.397 69.6434 144.643 69.1824 144.818 68.6584C144.993 68.1334 145.08 67.569 145.08 66.9649C145.08 66.2654 144.977 65.6295 144.77 65.0652C144.564 64.5008 144.277 64.0398 143.928 63.6901C143.578 63.3403 143.173 63.0701 142.719 62.8873C142.266 62.7044 141.782 62.6091 141.273 62.6091C140.716 62.6091 140.208 62.7044 139.739 62.8873C139.262 63.0701 138.849 63.3403 138.483 63.6901C138.117 64.0398 137.839 64.5008 137.632 65.0572C137.426 65.6216 137.33 66.2575 137.33 66.9649ZM138.745 66.9649C138.745 66.4085 138.809 65.9157 138.944 65.4865C139.071 65.0652 139.262 64.7313 139.5 64.4849C139.739 64.2465 140.001 64.0637 140.295 63.9444C140.589 63.8252 140.915 63.7616 141.273 63.7616C141.964 63.7616 142.545 64.0319 143.006 64.5644C143.467 65.097 143.697 65.8998 143.697 66.9649C143.697 67.3862 143.642 67.7836 143.538 68.1652C143.435 68.5464 143.284 68.8804 143.085 69.1824C142.886 69.4844 142.624 69.7234 142.306 69.8984C141.98 70.0724 141.615 70.1604 141.217 70.1604C140.764 70.1604 140.375 70.0724 140.041 69.8984C139.707 69.7234 139.453 69.4844 139.27 69.1744C139.087 68.8724 138.952 68.5304 138.872 68.1652C138.785 67.7995 138.745 67.4021 138.745 66.9649ZM146.774 63.8888H148.077V68.8564C148.077 69.2064 148.109 69.5244 148.189 69.8024C148.268 70.0884 148.387 70.3434 148.562 70.5734C148.737 70.8124 148.976 70.9944 149.294 71.1224C149.604 71.2494 149.977 71.3124 150.414 71.3124C150.573 71.3124 150.732 71.3044 150.907 71.2734C151.082 71.2414 151.233 71.2094 151.376 71.1614C151.511 71.1224 151.646 71.0744 151.789 71.0184C151.932 70.9634 152.044 70.9154 152.139 70.8674C152.227 70.8284 152.306 70.7884 152.378 70.7484C152.441 70.7164 152.481 70.6924 152.489 70.6924L152.123 69.6354L152.068 69.6594C152.028 69.6834 151.988 69.7074 151.948 69.7234C151.909 69.7474 151.853 69.7704 151.789 69.8024C151.726 69.8344 151.654 69.8664 151.591 69.8984C151.527 69.9294 151.448 69.9534 151.368 69.9854C151.281 70.0174 151.201 70.0414 151.122 70.0574C151.042 70.0804 150.963 70.0964 150.883 70.1124C150.796 70.1284 150.716 70.1284 150.645 70.1284C150.247 70.1284 149.945 70.0254 149.747 69.8104C149.54 69.5964 149.445 69.2304 149.445 68.7134V63.8888H151.543L151.766 62.768H149.445V60.2801L148.316 60.4391L148.141 62.768H146.774V63.8888ZM153.078 63.8888H154.381V68.8564C154.381 69.2064 154.413 69.5244 154.492 69.8024C154.572 70.0884 154.691 70.3434 154.866 70.5734C155.041 70.8124 155.279 70.9944 155.597 71.1224C155.907 71.2494 156.281 71.3124 156.718 71.3124C156.877 71.3124 157.036 71.3044 157.211 71.2734C157.386 71.2414 157.537 71.2094 157.68 71.1614C157.815 71.1224 157.95 71.0744 158.093 71.0184C158.236 70.9634 158.348 70.9154 158.443 70.8674C158.53 70.8284 158.61 70.7884 158.681 70.7484C158.745 70.7164 158.785 70.6924 158.793 70.6924L158.427 69.6354L158.371 69.6594C158.332 69.6834 158.292 69.7074 158.252 69.7234C158.212 69.7474 158.157 69.7704 158.093 69.8024C158.03 69.8344 157.958 69.8664 157.894 69.8984C157.831 69.9294 157.751 69.9534 157.672 69.9854C157.584 70.0174 157.505 70.0414 157.425 70.0574C157.346 70.0804 157.267 70.0964 157.187 70.1124C157.1 70.1284 157.02 70.1284 156.949 70.1284C156.551 70.1284 156.249 70.0254 156.05 69.8104C155.844 69.5964 155.748 69.2304 155.748 68.7134V63.8888H157.847L158.069 62.768H155.748V60.2801L154.62 60.4391L154.445 62.768H153.078V63.8888Z" fill="#351F6F"/>
<path d="M98.7718 97.8104L98.7848 97.9374C98.7908 98.0204 98.8168 98.1284 98.8608 98.2624C98.9058 98.3954 98.9628 98.5414 99.0328 98.7074C99.1028 98.8724 99.2108 99.0314 99.3508 99.1964C99.4908 99.3624 99.6558 99.5084 99.8468 99.6424C100.038 99.7814 100.279 99.8904 100.578 99.9794C100.877 100.068 101.208 100.118 101.57 100.125V101.091H102.276V100.099C102.842 100.042 103.331 99.8834 103.738 99.6234C104.145 99.3624 104.438 99.0504 104.629 98.6814C104.813 98.3134 104.908 97.9124 104.908 97.4804C104.908 97.3144 104.896 97.1554 104.877 97.0034C104.762 96.2014 104.336 95.5724 103.599 95.1274C103.338 94.9744 102.899 94.7714 102.276 94.5294V92.5964C102.429 92.6474 102.549 92.7234 102.651 92.8314C102.753 92.9464 102.823 93.0544 102.861 93.1554C102.899 93.2644 102.931 93.3784 102.944 93.5054C102.956 93.6324 102.956 93.7154 102.956 93.7604C102.956 93.8104 102.95 93.8494 102.95 93.8744L104.864 93.2644V93.1434C104.858 93.0664 104.839 92.9654 104.807 92.8384C104.775 92.7104 104.73 92.5644 104.673 92.4054C104.616 92.2464 104.521 92.0874 104.393 91.9224C104.266 91.7574 104.114 91.6044 103.942 91.4644C103.764 91.3244 103.535 91.2034 103.242 91.1024C102.95 91.0004 102.632 90.9364 102.276 90.9044V90.1224H101.57V90.8924C101.112 90.9174 100.712 91.0064 100.362 91.1594C100.012 91.3114 99.7318 91.5094 99.5288 91.7504C99.3188 91.9924 99.1598 92.2594 99.0578 92.5514C98.9498 92.8444 98.8988 93.1494 98.8988 93.4734C98.8988 93.5944 98.9058 93.7094 98.9178 93.8104C99.0008 94.6124 99.4268 95.2484 100.197 95.7124C100.464 95.8774 100.921 96.0814 101.57 96.3354V98.3064C101.411 98.2814 101.278 98.2174 101.163 98.1224C101.049 98.0334 100.972 97.9374 100.928 97.8424C100.877 97.7474 100.845 97.6394 100.82 97.5184C100.794 97.4034 100.788 97.3214 100.788 97.2764V97.1684L98.7718 97.8104ZM100.934 93.5124C100.909 93.2764 100.947 93.0734 101.061 92.9084C101.169 92.7424 101.341 92.6284 101.57 92.5704V94.2114C101.367 94.1164 101.214 94.0144 101.112 93.9124C101.004 93.8104 100.947 93.6774 100.934 93.5124ZM102.276 98.2624V96.6474C102.473 96.7484 102.626 96.8504 102.74 96.9584C102.848 97.0664 102.912 97.2004 102.925 97.3524C102.937 97.6074 102.886 97.8104 102.772 97.9634C102.657 98.1154 102.492 98.2174 102.276 98.2624ZM106.341 93.6394L108.414 94.1224L108.402 93.9764C108.389 93.8804 108.402 93.7604 108.427 93.6204C108.453 93.4804 108.491 93.3404 108.548 93.2004C108.605 93.0604 108.707 92.9334 108.859 92.8314C109.012 92.7294 109.197 92.6794 109.425 92.6664C110.093 92.6534 110.43 92.9394 110.43 93.5124C110.43 93.8364 110.303 94.1284 110.049 94.3954C109.794 94.6634 109.425 94.9494 108.936 95.2544C108.643 95.4384 108.383 95.6234 108.147 95.8144C107.906 96.0044 107.683 96.2204 107.467 96.4564C107.251 96.6914 107.073 96.9394 106.933 97.1934C106.786 97.4484 106.666 97.7284 106.564 98.0334C106.462 98.3384 106.411 98.6504 106.399 98.9804C106.386 99.3114 106.411 99.6734 106.462 100.061H112.268L112.567 98.2874H108.637C108.618 98.0204 108.713 97.7664 108.929 97.5304C109.139 97.2954 109.565 96.9714 110.208 96.5584C110.411 96.4244 110.583 96.3164 110.71 96.2274C110.837 96.1384 110.996 96.0234 111.18 95.8834C111.365 95.7444 111.511 95.6164 111.626 95.5024C111.74 95.3874 111.861 95.2414 111.988 95.0764C112.115 94.9114 112.211 94.7454 112.281 94.5804C112.351 94.4154 112.408 94.2244 112.459 94.0084C112.503 93.7984 112.529 93.5754 112.529 93.3404C112.522 93.0224 112.465 92.7234 112.357 92.4504C112.242 92.1834 112.096 91.9544 111.912 91.7634C111.727 91.5784 111.511 91.4204 111.27 91.2864C111.022 91.1524 110.767 91.0514 110.5 90.9814C110.233 90.9174 109.953 90.8794 109.673 90.8664C108.726 90.8414 107.95 91.0764 107.352 91.5784C106.748 92.0814 106.411 92.7684 106.341 93.6394ZM113.256 98.9044C113.256 99.2224 113.364 99.4894 113.58 99.7184C113.796 99.9474 114.063 100.061 114.375 100.061C114.693 100.061 114.966 99.9474 115.195 99.7184C115.424 99.4894 115.538 99.2224 115.538 98.9044C115.538 98.6054 115.424 98.3444 115.195 98.1224C114.966 97.8994 114.693 97.7854 114.375 97.7854C114.063 97.7854 113.796 97.8994 113.58 98.1224C113.364 98.3444 113.256 98.6054 113.256 98.9044ZM116.272 95.3244C116.272 96.8634 116.577 98.0454 117.2 98.8854C117.823 99.7244 118.714 100.138 119.871 100.138C121.041 100.138 121.919 99.7244 122.51 98.8854C123.101 98.0524 123.4 96.8634 123.4 95.3244C123.4 94.5294 123.305 93.8304 123.114 93.2254C122.923 92.6214 122.656 92.1384 122.326 91.7824C121.995 91.4264 121.62 91.1654 121.213 90.9874C120.799 90.8154 120.354 90.7264 119.871 90.7264C119.477 90.7264 119.108 90.7844 118.765 90.8924C118.415 91.0004 118.084 91.1724 117.779 91.4074C117.474 91.6484 117.207 91.9414 116.99 92.2914C116.768 92.6474 116.59 93.0794 116.463 93.5944C116.335 94.1164 116.272 94.6884 116.272 95.3244ZM118.434 95.3244C118.434 94.3574 118.561 93.6514 118.828 93.1944C119.095 92.7364 119.439 92.5074 119.858 92.5074C120.272 92.5074 120.609 92.7364 120.869 93.1814C121.13 93.6324 121.264 94.3454 121.264 95.3244C121.264 96.3864 121.149 97.1554 120.92 97.6264C120.691 98.0964 120.335 98.3324 119.858 98.3324C119.375 98.3324 119.019 98.0964 118.784 97.6194C118.548 97.1494 118.434 96.3794 118.434 95.3244ZM124.789 95.3244C124.789 96.8634 125.094 98.0454 125.717 98.8854C126.34 99.7244 127.23 100.138 128.388 100.138C129.558 100.138 130.435 99.7244 131.027 98.8854C131.618 98.0524 131.917 96.8634 131.917 95.3244C131.917 94.5294 131.821 93.8304 131.631 93.2254C131.44 92.6214 131.173 92.1384 130.842 91.7824C130.512 91.4264 130.136 91.1654 129.729 90.9874C129.316 90.8154 128.871 90.7264 128.388 90.7264C127.993 90.7264 127.625 90.7844 127.281 90.8924C126.931 91.0004 126.601 91.1724 126.296 91.4074C125.99 91.6484 125.723 91.9414 125.507 92.2914C125.285 92.6474 125.106 93.0794 124.979 93.5944C124.852 94.1164 124.789 94.6884 124.789 95.3244ZM126.951 95.3244C126.951 94.3574 127.078 93.6514 127.345 93.1944C127.612 92.7364 127.955 92.5074 128.375 92.5074C128.788 92.5074 129.125 92.7364 129.386 93.1814C129.647 93.6324 129.78 94.3454 129.78 95.3244C129.78 96.3864 129.666 97.1554 129.437 97.6264C129.208 98.0964 128.852 98.3324 128.375 98.3324C127.892 98.3324 127.536 98.0964 127.3 97.6194C127.065 97.1494 126.951 96.3794 126.951 95.3244ZM133.305 95.3244C133.305 96.8634 133.61 98.0454 134.234 98.8854C134.857 99.7244 135.747 100.138 136.904 100.138C138.074 100.138 138.952 99.7244 139.543 98.8854C140.135 98.0524 140.434 96.8634 140.434 95.3244C140.434 94.5294 140.338 93.8304 140.147 93.2254C139.957 92.6214 139.69 92.1384 139.359 91.7824C139.028 91.4264 138.653 91.1654 138.246 90.9874C137.833 90.8154 137.388 90.7264 136.904 90.7264C136.51 90.7264 136.141 90.7844 135.798 90.8924C135.448 91.0004 135.117 91.1724 134.812 91.4074C134.507 91.6484 134.24 91.9414 134.024 92.2914C133.801 92.6474 133.623 93.0794 133.496 93.5944C133.369 94.1164 133.305 94.6884 133.305 95.3244ZM135.467 95.3244C135.467 94.3574 135.594 93.6514 135.861 93.1944C136.129 92.7364 136.472 92.5074 136.892 92.5074C137.305 92.5074 137.642 92.7364 137.903 93.1814C138.163 93.6324 138.297 94.3454 138.297 95.3244C138.297 96.3864 138.182 97.1554 137.954 97.6264C137.725 98.0964 137.369 98.3324 136.892 98.3324C136.408 98.3324 136.052 98.0964 135.817 97.6194C135.582 97.1494 135.467 96.3794 135.467 95.3244Z" fill="#351F6F"/>
<path d="M117.514 325.562C124.257 325.562 129.723 319.974 129.723 313.081C129.723 306.189 124.257 300.601 117.514 300.601C110.771 300.601 105.305 306.189 105.305 313.081C105.305 319.974 110.771 325.562 117.514 325.562Z" fill="#C4C4C4"/>
<path d="M182.358 199.673C191.049 199.673 198.094 192.627 198.094 183.936C198.094 175.246 191.049 168.2 182.358 168.2C173.667 168.2 166.622 175.246 166.622 183.936C166.622 192.627 173.667 199.673 182.358 199.673Z" fill="#C4C4C4"/>
<path d="M91.1958 188.277C98.9876 188.277 105.304 182.082 105.304 174.44C105.304 166.798 98.9876 160.603 91.1958 160.603C83.404 160.603 77.0875 166.798 77.0875 174.44C77.0875 182.082 83.404 188.277 91.1958 188.277Z" fill="#C4C4C4"/>
<path d="M190.768 287.035C197.211 287.035 202.434 281.812 202.434 275.368C202.434 268.925 197.211 263.702 190.768 263.702C184.325 263.702 179.101 268.925 179.101 275.368C179.101 281.812 184.325 287.035 190.768 287.035Z" fill="#C4C4C4"/>
<path d="M51.0414 263.702C57.9341 263.702 63.5218 257.993 63.5218 250.95C63.5218 243.908 57.9341 238.199 51.0414 238.199C44.1486 238.199 38.561 243.908 38.561 250.95C38.561 257.993 44.1486 263.702 51.0414 263.702Z" fill="#C4C4C4"/>
<path d="M164.994 398.815H74.3747C67.1823 398.815 61.3517 404.646 61.3517 411.838V418.35C61.3517 425.542 67.1823 431.373 74.3747 431.373H164.994C172.186 431.373 178.017 425.542 178.017 418.35V411.838C178.017 404.646 172.186 398.815 164.994 398.815Z" fill="#58409C"/>
<path d="M109.001 412.2H110.044V417.668H110.773V411.589H109.001V412.2ZM112.21 414.51C112.21 415.536 112.405 416.329 112.795 416.884C113.185 417.444 113.745 417.719 114.474 417.719C115.207 417.719 115.763 417.444 116.136 416.884C116.509 416.324 116.7 415.536 116.7 414.51C116.7 414.086 116.657 413.7 116.577 413.353C116.496 413.005 116.386 412.717 116.25 412.484C116.115 412.25 115.949 412.055 115.763 411.894C115.572 411.738 115.369 411.623 115.157 411.551C114.94 411.483 114.711 411.445 114.474 411.445C114.16 411.445 113.872 411.504 113.609 411.623C113.346 411.742 113.105 411.92 112.893 412.157C112.681 412.395 112.511 412.717 112.393 413.12C112.27 413.522 112.21 413.984 112.21 414.51ZM112.939 414.497C112.939 414.065 112.978 413.688 113.058 413.365C113.139 413.043 113.253 412.793 113.397 412.607C113.541 412.42 113.703 412.284 113.881 412.195C114.059 412.106 114.254 412.06 114.466 412.06C114.673 412.06 114.864 412.106 115.042 412.191C115.216 412.28 115.373 412.416 115.517 412.598C115.661 412.785 115.771 413.039 115.852 413.361C115.928 413.683 115.971 414.065 115.971 414.497C115.971 415.421 115.848 416.083 115.606 416.49C115.36 416.897 114.983 417.096 114.466 417.096C113.948 417.096 113.567 416.892 113.317 416.486C113.062 416.079 112.939 415.413 112.939 414.497ZM117.815 414.51C117.815 415.536 118.01 416.329 118.4 416.884C118.79 417.444 119.349 417.719 120.078 417.719C120.812 417.719 121.367 417.444 121.74 416.884C122.113 416.324 122.304 415.536 122.304 414.51C122.304 414.086 122.262 413.7 122.181 413.353C122.101 413.005 121.99 412.717 121.855 412.484C121.719 412.25 121.554 412.055 121.367 411.894C121.176 411.738 120.973 411.623 120.761 411.551C120.545 411.483 120.316 411.445 120.078 411.445C119.765 411.445 119.476 411.504 119.214 411.623C118.951 411.742 118.709 411.92 118.497 412.157C118.285 412.395 118.116 412.717 117.997 413.12C117.874 413.522 117.815 413.984 117.815 414.51ZM118.544 414.497C118.544 414.065 118.582 413.688 118.662 413.365C118.743 413.043 118.857 412.793 119.002 412.607C119.146 412.42 119.307 412.284 119.485 412.195C119.663 412.106 119.858 412.06 120.07 412.06C120.278 412.06 120.468 412.106 120.646 412.191C120.82 412.28 120.977 412.416 121.121 412.598C121.265 412.785 121.376 413.039 121.456 413.361C121.532 413.683 121.575 414.065 121.575 414.497C121.575 415.421 121.452 416.083 121.21 416.49C120.964 416.897 120.587 417.096 120.07 417.096C119.553 417.096 119.171 416.892 118.921 416.486C118.667 416.079 118.544 415.413 118.544 414.497ZM123.237 413.136C123.237 413.645 123.355 414.035 123.593 414.307C123.83 414.582 124.174 414.718 124.623 414.718C125.076 414.718 125.42 414.582 125.649 414.307C125.878 414.031 125.996 413.637 125.996 413.12C125.996 412.861 125.958 412.632 125.886 412.429C125.81 412.229 125.708 412.068 125.581 411.949C125.454 411.831 125.305 411.738 125.144 411.678C124.983 411.619 124.809 411.589 124.623 411.589C124.432 411.589 124.254 411.623 124.093 411.682C123.932 411.742 123.783 411.835 123.656 411.954C123.525 412.072 123.423 412.234 123.347 412.437C123.271 412.64 123.237 412.874 123.237 413.136ZM123.783 413.12C123.783 412.763 123.856 412.496 124.008 412.318C124.157 412.14 124.36 412.051 124.614 412.051C124.869 412.051 125.068 412.14 125.221 412.314C125.373 412.488 125.45 412.755 125.45 413.12C125.45 413.484 125.382 413.764 125.255 413.959C125.123 414.154 124.911 414.247 124.614 414.247C124.059 414.247 123.783 413.874 123.783 413.12ZM124.869 417.668H125.466L128.298 411.589H127.705L124.869 417.668ZM127.255 416.087C127.255 416.596 127.374 416.986 127.612 417.257C127.849 417.533 128.197 417.668 128.646 417.668C129.1 417.668 129.443 417.533 129.672 417.257C129.901 416.981 130.015 416.587 130.015 416.07C130.015 415.811 129.977 415.583 129.905 415.379C129.829 415.18 129.727 415.019 129.6 414.9C129.473 414.781 129.328 414.692 129.167 414.633C129.006 414.574 128.832 414.544 128.646 414.544C128.243 414.544 127.913 414.675 127.65 414.93C127.387 415.188 127.255 415.574 127.255 416.087ZM127.802 416.07C127.802 415.714 127.874 415.447 128.027 415.269C128.18 415.091 128.383 415.002 128.637 415.002C128.892 415.002 129.091 415.091 129.244 415.265C129.392 415.438 129.468 415.705 129.468 416.07C129.468 416.435 129.401 416.71 129.273 416.905C129.142 417.1 128.93 417.198 128.637 417.198C128.078 417.198 127.802 416.825 127.802 416.07Z" fill="white"/>
<path d="M130.808 236.028L115.513 251.221L108.56 244.315" stroke="url(#paint0_linear)" stroke-width="2.1705" stroke-linecap="round" stroke-linejoin="round"/>
<defs>
<linearGradient id="paint0_linear" x1="107.132" y1="235.528" x2="130.632" y2="235.528" gradientUnits="userSpaceOnUse">
<stop stop-color="#FF723B"/>
<stop offset="0.449401" stop-color="#F5C096"/>
<stop offset="0.9999" stop-color="#FEC0E0"/>
<stop offset="1" stop-opacity="0"/>
</linearGradient>
</defs>
</svg>
